<svg width="60" height="60" viewBox="0 0 60 60" fill="none" xmlns="http://www.w3.org/2000/svg">
<path fill-rule="evenodd" clip-rule="evenodd" d="M43.75 40L40 43.75L30.625 34.375L21.25 43.75L17.5 40L26.875 30.625L17.5 21.25L21.25 17.5L30.625 26.875L40 17.5L43.75 21.25L34.375 30.625L43.75 40Z" fill="#E49F00"/>
<path fill-rule="evenodd" clip-rule="evenodd" d="M25 40L21.25 43.75L17.5 40L21.25 36.25L25 40ZM43.75 21.25L40 25L36.25 21.25L40 17.5L43.75 21.25ZM36.25 40L40 43.75L43.75 40L40 36.25L36.25 40ZM17.5 21.25L21.25 25L25 21.25L21.25 17.5L17.5 21.25Z" fill="#242424"/>
</svg>
