<svg width="60" height="60" viewBox="0 0 60 60" fill="none" xmlns="http://www.w3.org/2000/svg">
<g clip-path="url(#clip0_20353_3)">
<path d="M30 22.5C29.2583 22.5 28.5333 22.2801 27.9166 21.868C27.2999 21.456 26.8193 20.8703 26.5355 20.1851C26.2516 19.4998 26.1774 18.7458 26.3221 18.0184C26.4668 17.291 26.8239 16.6228 27.3484 16.0984C27.8728 15.5739 28.541 15.2168 29.2684 15.0721C29.9958 14.9274 30.7498 15.0016 31.4351 15.2855C32.1203 15.5693 32.706 16.0499 33.118 16.6666C33.5301 17.2833 33.75 18.0083 33.75 18.75C33.75 19.7446 33.3549 20.6984 32.6517 21.4017C31.9484 22.1049 30.9946 22.5 30 22.5Z" fill="#E49F00"/>
<path d="M30 54.375C25.1791 54.375 20.4664 52.9454 16.458 50.2671C12.4495 47.5887 9.32533 43.7819 7.48045 39.3279C5.63556 34.874 5.15285 29.973 6.09337 25.2447C7.03388 20.5164 9.35538 16.1732 12.7643 12.7643C16.1732 9.35538 20.5164 7.03388 25.2447 6.09337C29.973 5.15285 34.874 5.63556 39.3279 7.48045C43.7819 9.32533 47.5887 12.4495 50.2671 16.458C52.9454 20.4664 54.375 25.1791 54.375 30C54.375 36.4647 51.8069 42.6645 47.2357 47.2357C42.6645 51.8069 36.4647 54.375 30 54.375ZM30 9.37501C25.9208 9.37501 21.9331 10.5846 18.5414 12.8509C15.1496 15.1173 12.5061 18.3384 10.945 22.1072C9.38394 25.8759 8.97549 30.0229 9.77131 34.0238C10.5671 38.0246 12.5315 41.6996 15.4159 44.5841C18.3004 47.4685 21.9754 49.4329 25.9763 50.2287C29.9771 51.0245 34.1241 50.6161 37.8929 49.055C41.6616 47.494 44.8828 44.8504 47.1491 41.4586C49.4154 38.0669 50.625 34.0793 50.625 30C50.625 24.5299 48.452 19.2839 44.5841 15.4159C40.7162 11.548 35.4701 9.37501 30 9.37501Z" fill="#E49F00"/>
<path d="M30 45C29.0054 45 28.0516 44.6049 27.3484 43.9016C26.6451 43.1984 26.25 42.2446 26.25 41.25V30C26.25 29.0054 26.6451 28.0516 27.3484 27.3484C28.0516 26.6451 29.0054 26.25 30 26.25C30.9946 26.25 31.9484 26.6451 32.6516 27.3484C33.3549 28.0516 33.75 29.0054 33.75 30V41.25C33.75 42.2446 33.3549 43.1984 32.6516 43.9016C31.9484 44.6049 30.9946 45 30 45Z" fill="#E49F00"/>
</g>
<defs>
<clipPath id="clip0_20353_3">
<rect width="60" height="60" fill="white"/>
</clipPath>
</defs>
</svg>
