<svg width="50" height="50" viewBox="0 0 50 50" fill="none" xmlns="http://www.w3.org/2000/svg">
<path d="M0 7.0835V8.99266V41.0077V42.9168H50V41.0077V8.99266V7.0835H0ZM30.5208 25.4702L25.9825 30.0302C25.4308 30.5427 24.5675 30.5418 24.0392 30.0518L19.4783 25.4702L19.5183 25.431L3.03917 8.75016H46.9717L30.4808 25.4318L30.5208 25.4702ZM17.1033 25.4443L1.66667 40.296V9.936L17.1033 25.4443ZM18.2783 26.6252L22.8808 31.2493C23.4717 31.8002 24.23 32.0768 24.9917 32.0768C25.7608 32.0768 26.5333 31.7943 27.1425 31.2268L31.7225 26.6252L46.92 41.2502H3.07167L18.2783 26.6252ZM32.8975 25.4452L48.3333 9.93516V40.296L32.8975 25.4452Z" fill="#E49F00"/>
</svg>
