<svg width="50" height="50" viewBox="0 0 50 50" fill="none" xmlns="http://www.w3.org/2000/svg">
<path d="M35.2114 50C35.2114 50 39.7499 50 39.7499 45.4547V4.54527C39.7499 0 35.2114 0 35.2114 0H14.7884C14.7884 0 10.25 0 10.25 4.54527V45.4547C10.25 50 14.7884 50 14.7884 50H35.2114ZM24.9999 48.1074C23.7473 48.1074 22.7307 47.0908 22.7307 45.8383C22.7307 44.5856 23.7473 43.5691 24.9999 43.5691C26.2525 43.5691 27.2692 44.5857 27.2692 45.8383C27.2692 47.0908 26.2526 48.1074 24.9999 48.1074ZM19.3269 2.77071C19.3269 2.48933 19.5516 2.26919 19.8284 2.26919H30.1693C30.4461 2.26919 30.673 2.49388 30.673 2.77071V2.90461C30.673 3.18826 30.4484 3.40612 30.1716 3.40612H19.8284C19.5539 3.40612 19.3269 3.18144 19.3269 2.90461V2.77071ZM12.5193 5.67304H37.4807V41.9806H12.5193V5.67304Z" fill="#E49F00"/>
</svg>
