<svg width="50" height="50" viewBox="0 0 50 50" fill="none" xmlns="http://www.w3.org/2000/svg">
<path d="M29.0144 34.8734L36.4845 22.8617C36.509 22.8229 36.5294 22.782 36.5453 22.7397C37.8353 20.6361 38.5164 18.233 38.5164 15.7797C38.5164 8.41956 32.5285 2.43164 25.1685 2.43164C17.8085 2.43164 11.8201 8.41956 11.8201 15.7797C11.8201 18.2335 12.5022 20.6376 13.7931 22.7426C13.8081 22.7795 13.8255 22.8154 13.8465 22.8503L21.0485 34.9033C15.4578 35.6936 11.7812 37.9925 11.7812 40.7812C11.7812 44.2365 17.653 46.9425 25.1486 46.9425C32.6441 46.9425 38.5159 44.236 38.5159 40.7812C38.5164 37.9795 34.6685 35.6293 29.0144 34.8734ZM15.1349 22.0695C13.9441 20.1742 13.3148 17.9993 13.3148 15.7797C13.3148 9.24366 18.6321 3.92638 25.1685 3.92638C31.7044 3.92638 37.0217 9.24366 37.0217 15.7797C37.0217 18.0003 36.3924 20.1752 35.2021 22.0695C35.1772 22.1094 35.1567 22.1507 35.1403 22.1936L27.2482 34.8824C27.1296 35.0643 27.1062 35.1056 26.9612 35.3438L24.9682 38.5485L15.2017 22.204C15.1842 22.1577 15.1618 22.1124 15.1349 22.0695ZM25.1491 45.4477C18.1523 45.4477 13.2765 42.9879 13.2765 40.7812C13.2765 38.7782 16.9485 36.8908 21.8876 36.3064L24.314 40.3676C24.448 40.5913 24.6882 40.7293 24.9488 40.7313C24.9508 40.7313 24.9533 40.7313 24.9552 40.7313C25.2133 40.7313 25.4535 40.5978 25.59 40.3786L28.141 36.277C33.1588 36.8206 37.0212 38.7558 37.0212 40.7812C37.0217 42.9884 32.1459 45.4477 25.1491 45.4477Z" fill="#E49F00"/>
<path d="M30.0036 15.7797C30.0036 13.1036 27.8263 10.9263 25.1502 10.9263C22.4742 10.9263 20.2969 13.1036 20.2969 15.7797C20.2969 18.4558 22.4742 20.6331 25.1502 20.6331C27.8263 20.6331 30.0036 18.4558 30.0036 15.7797ZM21.7916 15.7797C21.7916 13.9277 23.2983 12.421 25.1502 12.421C27.0022 12.421 28.5089 13.9277 28.5089 15.7797C28.5089 17.6317 27.0027 19.1384 25.1502 19.1384C23.2978 19.1384 21.7916 17.6317 21.7916 15.7797Z" fill="#E49F00"/>
</svg>
