<svg width="90" height="90" viewBox="0 0 90 90" fill="none" xmlns="http://www.w3.org/2000/svg">
<g clip-path="url(#clip0_20243_3)">
<path d="M45 90C69.8527 90 90 69.8527 90 45C90 20.1473 69.8527 0 45 0C20.1473 0 0 20.1473 0 45C0 69.8527 20.1473 90 45 90Z" fill="white"/>
<path d="M16.761 47.2014C22.0215 44.3038 27.8936 41.8854 33.3802 39.4547C42.8193 35.4733 52.296 31.5609 61.8682 27.9186C63.7307 27.2979 67.077 26.691 67.4051 29.451C67.2255 33.3577 66.4863 37.2416 65.9793 41.1255C64.6925 49.6665 63.2053 58.1783 61.755 66.6911C61.2553 69.5267 57.7031 70.9946 55.4302 69.18C49.968 65.4904 44.4637 61.8368 39.0712 58.0616C37.3048 56.2667 38.9428 53.6891 40.5204 52.4074C45.0193 47.9737 49.7904 44.2069 54.0542 39.5441C55.2043 36.7667 51.806 39.1074 50.6852 39.8246C44.5262 44.0689 38.5179 48.5722 32.0244 52.3024C28.7075 54.1282 24.8417 52.5679 21.5263 51.549C18.5536 50.3182 14.1979 49.0781 16.761 47.2014Z" fill="#E49F00"/>
</g>
<defs>
<clipPath id="clip0_20243_3">
<rect width="90" height="90" fill="white"/>
</clipPath>
</defs>
</svg>
