<svg width="90" height="90" viewBox="0 0 90 90" fill="none" xmlns="http://www.w3.org/2000/svg">
<g clip-path="url(#clip0_20232_258)">
<path d="M45 90C69.8528 90 90 69.8528 90 45C90 20.1472 69.8528 0 45 0C20.1472 0 0 20.1472 0 45C0 69.8528 20.1472 90 45 90Z" fill="white"/>
<path fill-rule="evenodd" clip-rule="evenodd" d="M43.3003 64.7364H46.8323C46.8323 64.7364 47.8991 64.6193 48.4438 64.0321C48.9452 63.493 48.9291 62.4807 48.9291 62.4807C48.9291 62.4807 48.8601 57.7415 51.0597 57.0436C53.2279 56.3562 56.0123 61.624 58.9634 63.6495C61.1951 65.1824 62.8909 64.8463 62.8909 64.8463L70.7818 64.7364C70.7818 64.7364 74.9097 64.4821 72.9524 61.2365C72.792 60.971 71.8126 58.8357 67.0854 54.4478C62.1376 49.8554 62.8002 50.5982 68.7603 42.6543C72.3901 37.8165 73.8413 34.8629 73.388 33.5979C72.9557 32.393 70.286 32.7115 70.286 32.7115L61.4012 32.7668C61.4012 32.7668 60.7427 32.677 60.2541 32.969C59.7768 33.2553 59.4696 33.9227 59.4696 33.9227C59.4696 33.9227 58.0634 37.6665 56.1879 40.8503C52.2317 47.5684 50.6498 47.923 50.0032 47.5058C48.4992 46.5336 48.8746 43.6001 48.8746 41.5161C48.8746 35.0057 49.862 32.2911 46.9518 31.5884C45.986 31.355 45.2753 31.201 42.8054 31.1761C39.6352 31.1432 36.952 31.1857 35.4327 31.9302C34.4219 32.4251 33.6422 33.5281 34.1171 33.5914C34.7043 33.6701 36.0343 33.95 36.7394 34.9102C37.6499 36.1488 37.6178 38.9307 37.6178 38.9307C37.6178 38.9307 38.1408 46.5946 36.3961 47.5468C35.1984 48.1997 33.5556 46.8665 30.0285 40.7716C28.2212 37.6496 26.8567 34.1987 26.8567 34.1987C26.8567 34.1987 26.5936 33.5537 26.1243 33.2088C25.5548 32.7909 24.759 32.6577 24.759 32.6577L16.3162 32.7131C16.3162 32.7131 15.0488 32.7484 14.5835 33.2995C14.1696 33.7896 14.5506 34.8035 14.5506 34.8035C14.5506 34.8035 21.1605 50.2677 28.6447 58.0608C35.5073 65.2057 43.3003 64.7364 43.3003 64.7364Z" fill="#E49F00"/>
</g>
<defs>
<clipPath id="clip0_20232_258">
<rect width="90" height="90" fill="white"/>
</clipPath>
</defs>
</svg>
