<svg width="90" height="90" viewBox="0 0 90 90" fill="none" xmlns="http://www.w3.org/2000/svg">
<g clip-path="url(#clip0_20232_284)">
<path d="M45 90C69.8528 90 90 69.8528 90 45C90 20.1473 69.8528 0 45 0C20.1473 0 0 20.1473 0 45C0 69.8528 20.1473 90 45 90Z" fill="white"/>
<path fill-rule="evenodd" clip-rule="evenodd" d="M46.4833 70.036H46.4723C41.9938 70.0345 37.5934 68.9108 33.6849 66.7789L19.5 70.5L23.2961 56.634C20.9544 52.576 19.7224 47.9728 19.7243 43.2566C19.7303 28.5032 31.734 16.5 46.4829 16.5C53.6411 16.5031 60.3596 19.2898 65.4116 24.3476C70.4636 29.4053 73.2443 36.1281 73.2414 43.2778C73.2356 58.0281 61.2366 70.03 46.4833 70.036ZM34.3423 61.9348L35.1544 62.4167C38.5691 64.4432 42.4834 65.5153 46.4743 65.5168H46.4833C58.7415 65.5168 68.7186 55.5396 68.7234 43.2763C68.7259 37.3335 66.4148 31.7458 62.2157 27.5419C58.0166 23.338 52.4325 21.0216 46.4919 21.0195C34.2242 21.0195 24.2471 30.9958 24.2423 43.2583C24.2406 47.4608 25.4164 51.5533 27.6426 55.0943L28.1715 55.9358L25.9247 64.1428L34.3423 61.9348ZM59.0482 49.0388C59.5146 49.2641 59.8296 49.4164 59.964 49.6408C60.1311 49.9196 60.1311 51.2584 59.5742 52.8203C59.0168 54.3821 56.3456 55.8075 55.0611 55.9993C53.9093 56.1716 52.4514 56.2435 50.8498 55.7344C49.8787 55.4263 48.6336 55.015 47.0383 54.3261C40.7704 51.6195 36.5344 45.5445 35.7338 44.3963C35.6777 44.3158 35.6385 44.2596 35.6166 44.2303L35.6113 44.2232C35.2575 43.7511 32.8866 40.5878 32.8866 37.314C32.8866 34.2341 34.3993 32.62 35.0957 31.8769C35.1435 31.8261 35.1874 31.7792 35.2266 31.7363C35.8395 31.0669 36.5638 30.8995 37.0095 30.8995C37.4552 30.8995 37.9014 30.9036 38.2911 30.9233C38.3391 30.9257 38.3891 30.9253 38.4407 30.925C38.8303 30.9227 39.3161 30.9199 39.7954 32.071C39.9797 32.5138 40.2495 33.1706 40.5339 33.8633C41.1092 35.2639 41.745 36.8115 41.8568 37.0354C42.024 37.3701 42.1354 37.7605 41.9124 38.2067C41.8791 38.2736 41.8481 38.3368 41.8185 38.3972C41.6511 38.739 41.5281 38.9903 41.2438 39.3221C41.1323 39.4525 41.0167 39.5931 40.9012 39.7337C40.6712 40.0138 40.4413 40.294 40.2411 40.4935C39.9062 40.8268 39.5578 41.1885 39.9478 41.8579C40.3378 42.5273 41.6798 44.7167 43.6672 46.4897C45.804 48.3955 47.661 49.201 48.6023 49.6091C48.786 49.689 48.9349 49.7535 49.0442 49.8083C49.7124 50.143 50.1024 50.0869 50.4926 49.6408C50.8826 49.1946 52.164 47.6884 52.6095 47.0192C53.0552 46.3502 53.5011 46.4616 54.1138 46.6845C54.7269 46.908 58.014 48.5252 58.6826 48.8599C58.8131 48.9251 58.9352 48.9842 59.0482 49.0388Z" fill="#E49F00"/>
</g>
<defs>
<clipPath id="clip0_20232_284">
<rect width="90" height="90" fill="white"/>
</clipPath>
</defs>
</svg>
