<svg width="30" height="30" viewBox="0 0 30 30" fill="none" xmlns="http://www.w3.org/2000/svg">
<path d="M16.4102 20.9241L20.8923 13.717C20.9069 13.6937 20.9192 13.6692 20.9288 13.6438C21.7027 12.3816 22.1114 10.9398 22.1114 9.46779C22.1114 5.05174 18.5187 1.45898 14.1027 1.45898C9.68665 1.45898 6.09363 5.05174 6.09363 9.46779C6.09363 10.9401 6.50289 12.3825 7.27745 13.6456C7.28642 13.6677 7.29688 13.6892 7.30944 13.7102L11.6307 20.942C8.27623 21.4161 6.07031 22.7955 6.07031 24.4687C6.07031 26.5419 9.59338 28.1655 14.0907 28.1655C18.588 28.1655 22.1111 26.5416 22.1111 24.4687C22.1114 22.7877 19.8026 21.3776 16.4102 20.9241ZM8.08251 13.2417C7.36803 12.1045 6.99046 10.7996 6.99046 9.46779C6.99046 5.5462 10.1808 2.35583 14.1027 2.35583C18.0242 2.35583 21.2146 5.5462 21.2146 9.46779C21.2146 10.8002 20.837 12.1051 20.1228 13.2417C20.1079 13.2656 20.0956 13.2904 20.0857 13.3161L15.3505 20.9295C15.2793 21.0386 15.2653 21.0634 15.1783 21.2063L13.9825 23.1291L8.12257 13.3224C8.11211 13.2946 8.09865 13.2674 8.08251 13.2417ZM14.091 27.2686C9.89292 27.2686 6.96745 25.7927 6.96745 24.4687C6.96745 23.2669 9.17067 22.1345 12.1341 21.7838L13.59 24.2206C13.6704 24.3548 13.8145 24.4376 13.9708 24.4388C13.972 24.4388 13.9735 24.4388 13.9747 24.4388C14.1296 24.4388 14.2737 24.3587 14.3556 24.2271L15.8862 21.7662C18.8968 22.0924 21.2143 23.2535 21.2143 24.4687C21.2146 25.793 18.2891 27.2686 14.091 27.2686Z" fill="#E49F00"/>
<path d="M17.0037 9.46771C17.0037 7.86207 15.6973 6.55566 14.0917 6.55566C12.4861 6.55566 11.1797 7.86207 11.1797 9.46771C11.1797 11.0734 12.4861 12.3798 14.0917 12.3798C15.6973 12.3798 17.0037 11.0734 17.0037 9.46771ZM12.0765 9.46771C12.0765 8.35652 12.9805 7.45251 14.0917 7.45251C15.2029 7.45251 16.1069 8.35652 16.1069 9.46771C16.1069 10.5789 15.2032 11.4829 14.0917 11.4829C12.9802 11.4829 12.0765 10.5789 12.0765 9.46771Z" fill="#E49F00"/>
</svg>
