<svg width="30" height="30" viewBox="0 0 30 30" fill="none" xmlns="http://www.w3.org/2000/svg">
<g clip-path="url(#clip0_20257_163)">
<path d="M15 27.1875C12.5895 27.1875 10.2332 26.4727 8.22899 25.1335C6.22477 23.7944 4.66267 21.8909 3.74022 19.664C2.81778 17.437 2.57643 14.9865 3.04668 12.6223C3.51694 10.2582 4.67769 8.08659 6.38214 6.38214C8.08659 4.67769 10.2582 3.51694 12.6223 3.04668C14.9865 2.57643 17.437 2.81778 19.664 3.74022C21.8909 4.66267 23.7944 6.22477 25.1335 8.22899C26.4727 10.2332 27.1875 12.5895 27.1875 15C27.1875 18.2323 25.9035 21.3323 23.6179 23.6179C21.3323 25.9035 18.2323 27.1875 15 27.1875ZM15 4.68751C12.9604 4.68751 10.9666 5.29232 9.27069 6.42547C7.57481 7.55863 6.25303 9.16922 5.4725 11.0536C4.69197 12.9379 4.48775 15.0114 4.88566 17.0119C5.28357 19.0123 6.26574 20.8498 7.70797 22.292C9.1502 23.7343 10.9877 24.7164 12.9881 25.1144C14.9886 25.5123 17.0621 25.308 18.9464 24.5275C20.8308 23.747 22.4414 22.4252 23.5745 20.7293C24.7077 19.0334 25.3125 17.0396 25.3125 15C25.3125 12.265 24.226 9.64194 22.292 7.70797C20.3581 5.774 17.7351 4.68751 15 4.68751Z" fill="#E49F00"/>
<path d="M15 15.9375C14.0729 15.9375 13.1666 15.6626 12.3958 15.1475C11.6249 14.6324 11.0241 13.9004 10.6693 13.0438C10.3145 12.1873 10.2217 11.2448 10.4026 10.3355C10.5834 9.42623 11.0299 8.591 11.6854 7.93544C12.341 7.27988 13.1762 6.83344 14.0855 6.65257C14.9948 6.4717 15.9373 6.56453 16.7938 6.91932C17.6504 7.2741 18.3824 7.87491 18.8975 8.64577C19.4126 9.41662 19.6875 10.3229 19.6875 11.25C19.6875 12.4932 19.1936 13.6855 18.3146 14.5646C17.4355 15.4436 16.2432 15.9375 15 15.9375ZM15 8.4375C14.4437 8.4375 13.9 8.60245 13.4375 8.91149C12.9749 9.22054 12.6145 9.65979 12.4016 10.1737C12.1887 10.6876 12.133 11.2531 12.2415 11.7987C12.3501 12.3443 12.6179 12.8454 13.0113 13.2387C13.4046 13.6321 13.9057 13.8999 14.4513 14.0085C14.9969 14.117 15.5624 14.0613 16.0763 13.8484C16.5902 13.6355 17.0295 13.2751 17.3385 12.8125C17.6476 12.35 17.8125 11.8063 17.8125 11.25C17.8125 10.5041 17.5162 9.78871 16.9887 9.26126C16.4613 8.73382 15.7459 8.4375 15 8.4375Z" fill="#E49F00"/>
<path d="M23.9498 22.5C23.8197 22.5009 23.6908 22.4747 23.5714 22.423C23.4519 22.3714 23.3445 22.2954 23.2561 22.2C22.261 21.1146 21.0514 20.2476 19.704 19.6537C18.3565 19.0598 16.9004 18.7521 15.4279 18.75H14.5654C11.8206 18.7441 9.18124 19.8066 7.20605 21.7125C7.02356 21.8631 6.79087 21.9391 6.55467 21.9253C6.31847 21.9115 6.09622 21.8089 5.93251 21.6381C5.7688 21.4673 5.67574 21.2408 5.67199 21.0043C5.66824 20.7677 5.75409 20.5385 5.9123 20.3625C8.23344 18.119 11.3373 16.8681 14.5654 16.875H15.4279C17.1588 16.8789 18.8701 17.2407 20.4544 17.9377C22.0387 18.6347 23.4618 19.6517 24.6342 20.925C24.758 21.0586 24.8403 21.2253 24.871 21.4049C24.9016 21.5845 24.8792 21.7691 24.8066 21.9362C24.734 22.1032 24.6143 22.2455 24.4622 22.3457C24.31 22.4458 24.132 22.4994 23.9498 22.5Z" fill="#E49F00"/>
</g>
<defs>
<clipPath id="clip0_20257_163">
<rect width="30" height="30" fill="white"/>
</clipPath>
</defs>
</svg>
