<svg width="97" height="17" viewBox="0 0 97 17" fill="none" xmlns="http://www.w3.org/2000/svg">
<path d="M3.807 5.236C4.221 4.56133 4.75767 4.03233 5.417 3.649C6.09167 3.26567 6.85833 3.074 7.717 3.074V6.455H6.866C5.854 6.455 5.08733 6.69267 4.566 7.168C4.06 7.64333 3.807 8.47133 3.807 9.652V16H0.587V3.258H3.807V5.236ZM21.7308 9.353C21.7308 9.813 21.7002 10.227 21.6388 10.595H12.3238C12.4005 11.515 12.7225 12.2357 13.2898 12.757C13.8572 13.2783 14.5548 13.539 15.3828 13.539C16.5788 13.539 17.4298 13.0253 17.9358 11.998H21.4088C21.0408 13.2247 20.3355 14.2367 19.2928 15.034C18.2502 15.816 16.9698 16.207 15.4518 16.207C14.2252 16.207 13.1212 15.9387 12.1398 15.402C11.1738 14.85 10.4148 14.0757 9.86283 13.079C9.32616 12.0823 9.05783 10.9323 9.05783 9.629C9.05783 8.31033 9.32616 7.15267 9.86283 6.156C10.3995 5.15933 11.1508 4.39267 12.1168 3.856C13.0828 3.31933 14.1945 3.051 15.4518 3.051C16.6632 3.051 17.7442 3.31167 18.6948 3.833C19.6608 4.35433 20.4045 5.098 20.9258 6.064C21.4625 7.01467 21.7308 8.111 21.7308 9.353ZM18.3958 8.433C18.3805 7.605 18.0815 6.94567 17.4988 6.455C16.9162 5.949 16.2032 5.696 15.3598 5.696C14.5625 5.696 13.8878 5.94133 13.3358 6.432C12.7992 6.90733 12.4695 7.57433 12.3468 8.433H18.3958ZM25.5071 16.161C24.9245 16.161 24.4415 15.9847 24.0581 15.632C23.6901 15.264 23.5061 14.8117 23.5061 14.275C23.5061 13.7383 23.6901 13.2937 24.0581 12.941C24.4415 12.573 24.9245 12.389 25.5071 12.389C26.0745 12.389 26.5421 12.573 26.9101 12.941C27.2781 13.2937 27.4621 13.7383 27.4621 14.275C27.4621 14.8117 27.2781 15.264 26.9101 15.632C26.5421 15.9847 26.0745 16.161 25.5071 16.161ZM45.8798 3.074C47.4438 3.074 48.7011 3.557 49.6518 4.523C50.6178 5.47367 51.1008 6.80767 51.1008 8.525V16H47.8808V8.962C47.8808 7.96533 47.6278 7.20633 47.1218 6.685C46.6158 6.14833 45.9258 5.88 45.0518 5.88C44.1778 5.88 43.4801 6.14833 42.9588 6.685C42.4528 7.20633 42.1998 7.96533 42.1998 8.962V16H38.9798V8.962C38.9798 7.96533 38.7268 7.20633 38.2208 6.685C37.7148 6.14833 37.0248 5.88 36.1508 5.88C35.2614 5.88 34.5561 6.14833 34.0348 6.685C33.5288 7.20633 33.2758 7.96533 33.2758 8.962V16H30.0558V3.258H33.2758V4.799C33.6898 4.26233 34.2188 3.84067 34.8628 3.534C35.5221 3.22733 36.2428 3.074 37.0248 3.074C38.0214 3.074 38.9108 3.28867 39.6928 3.718C40.4748 4.132 41.0804 4.73 41.5098 5.512C41.9238 4.776 42.5218 4.18567 43.3038 3.741C44.1011 3.29633 44.9598 3.074 45.8798 3.074ZM59.8143 16.207C58.5877 16.207 57.4837 15.9387 56.5023 15.402C55.521 14.85 54.7467 14.0757 54.1793 13.079C53.6273 12.0823 53.3513 10.9323 53.3513 9.629C53.3513 8.32567 53.635 7.17567 54.2023 6.179C54.785 5.18233 55.5747 4.41567 56.5713 3.879C57.568 3.327 58.6797 3.051 59.9063 3.051C61.133 3.051 62.2447 3.327 63.2413 3.879C64.238 4.41567 65.02 5.18233 65.5873 6.179C66.17 7.17567 66.4613 8.32567 66.4613 9.629C66.4613 10.9323 66.1623 12.0823 65.5643 13.079C64.9817 14.0757 64.1843 14.85 63.1723 15.402C62.1757 15.9387 61.0563 16.207 59.8143 16.207ZM59.8143 13.401C60.397 13.401 60.9413 13.263 61.4473 12.987C61.9687 12.6957 62.3827 12.2663 62.6893 11.699C62.996 11.1317 63.1493 10.4417 63.1493 9.629C63.1493 8.41767 62.8273 7.49 62.1833 6.846C61.5547 6.18667 60.7803 5.857 59.8603 5.857C58.9403 5.857 58.166 6.18667 57.5373 6.846C56.924 7.49 56.6173 8.41767 56.6173 9.629C56.6173 10.8403 56.9163 11.7757 57.5143 12.435C58.1277 13.079 58.8943 13.401 59.8143 13.401ZM70.2493 16.161C69.6667 16.161 69.1837 15.9847 68.8003 15.632C68.4323 15.264 68.2483 14.8117 68.2483 14.275C68.2483 13.7383 68.4323 13.2937 68.8003 12.941C69.1837 12.573 69.6667 12.389 70.2493 12.389C70.8167 12.389 71.2843 12.573 71.6523 12.941C72.0203 13.2937 72.2043 13.7383 72.2043 14.275C72.2043 14.8117 72.0203 15.264 71.6523 15.632C71.2843 15.9847 70.8167 16.161 70.2493 16.161ZM81.8589 3.074C83.3769 3.074 84.6036 3.557 85.5389 4.523C86.4743 5.47367 86.9419 6.80767 86.9419 8.525V16H83.7219V8.962C83.7219 7.95 83.4689 7.17567 82.9629 6.639C82.4569 6.087 81.7669 5.811 80.8929 5.811C80.0036 5.811 79.2983 6.087 78.7769 6.639C78.2709 7.17567 78.0179 7.95 78.0179 8.962V16H74.7979V3.258H78.0179V4.845C78.4473 4.293 78.9916 3.86367 79.6509 3.557C80.3256 3.235 81.0616 3.074 81.8589 3.074ZM93.753 5.903V12.067C93.753 12.4963 93.8527 12.8107 94.052 13.01C94.2667 13.194 94.6193 13.286 95.11 13.286H96.605V16H94.581C91.867 16 90.51 14.6813 90.51 12.044V5.903H88.992V3.258H90.51V0.106999H93.753V3.258H96.605V5.903H93.753Z" fill="white"/>
</svg>
