<svg width="15" height="15" viewBox="0 0 15 15" fill="none" xmlns="http://www.w3.org/2000/svg">
<path d="M0.226552 6.97732C1.76109 5.95671 3.47405 5.1049 5.07456 4.24873C7.82806 2.8464 10.5925 1.46837 13.3848 0.185436C13.9281 -0.0331631 14.9043 -0.246941 15 0.725196C14.9476 2.10125 14.732 3.46924 14.5841 4.83723C14.2087 7.84558 13.7749 10.8436 13.3518 13.8421C13.206 14.8408 12.1698 15.3578 11.5068 14.7187C9.9134 13.4191 8.30774 12.1322 6.73469 10.8025C6.2194 10.1703 6.69722 9.26244 7.15743 8.81098C8.46981 7.24935 9.8616 5.92256 11.1054 4.28023C11.4409 3.30195 10.4496 4.12642 10.1226 4.37903C8.32596 5.87396 6.57328 7.46015 4.67906 8.77399C3.71149 9.41711 2.58377 8.86751 1.61664 8.50864C0.749477 8.07514 -0.52114 7.63834 0.226552 6.97732Z" fill="white"/>
</svg>
