<svg width="17" height="17" viewBox="0 0 17 17" fill="none" xmlns="http://www.w3.org/2000/svg">
<path d="M16.083 3.90801C16.1922 3.49297 16.083 3.1875 15.5576 3.1875H13.8193C13.3766 3.1875 13.1729 3.4498 13.0637 3.74199C13.0637 3.74199 12.1783 6.16914 10.9269 7.74297C10.5226 8.19785 10.3366 8.34395 10.1153 8.34395C10.0061 8.34395 9.83785 8.19785 9.83785 7.78281V3.90801C9.83785 3.40996 9.71389 3.1875 9.34792 3.1875H6.61493C6.3375 3.1875 6.17222 3.41992 6.17222 3.63574C6.17222 4.10723 6.79792 4.2168 6.86285 5.54492V8.42695C6.86285 9.05781 6.7625 9.17402 6.54115 9.17402C5.95087 9.17402 4.51649 6.73691 3.66649 3.94785C3.49531 3.40664 3.32708 3.1875 2.88142 3.1875H1.14306C0.647222 3.1875 0.546875 3.4498 0.546875 3.74199C0.546875 4.25996 1.13715 6.8332 3.29462 10.2332C4.73194 12.5541 6.7566 13.8125 8.59826 13.8125C9.70503 13.8125 9.8408 13.5336 9.8408 13.0521C9.8408 10.8342 9.74045 10.625 10.2953 10.625C10.5521 10.625 10.9948 10.7711 12.0278 11.89C13.2083 13.2182 13.4031 13.8125 14.0642 13.8125H15.8026C16.2984 13.8125 16.5493 13.5336 16.4047 12.9824C16.0741 11.8236 13.8399 9.43965 13.7396 9.28027C13.4828 8.9084 13.5566 8.74238 13.7396 8.41035C13.7425 8.40703 15.8646 5.04687 16.083 3.90801Z" fill="white"/>
</svg>
