<svg width="15" height="15" viewBox="0 0 15 15" fill="none" xmlns="http://www.w3.org/2000/svg">
<path fill-rule="evenodd" clip-rule="evenodd" d="M7.53143 14.8711H7.52834C6.27834 14.8707 5.05012 14.5585 3.95922 13.9664L0 15L1.05955 11.1483C0.405954 10.0211 0.0620682 8.74245 0.0625915 7.4324C0.0642662 3.33422 3.41468 0 7.53132 0C9.52927 0.000859375 11.4045 0.774953 12.8146 2.1799C14.2247 3.5848 15.0008 5.45224 15 7.43828C14.9984 11.5356 11.6493 14.8694 7.53143 14.8711ZM4.1427 12.6208L4.36936 12.7546C5.32246 13.3176 6.41499 13.6154 7.52891 13.6158H7.53143C10.9529 13.6158 13.7376 10.8443 13.739 7.43787C13.7396 5.78709 13.0946 4.23495 11.9226 3.06719C10.7505 1.89943 9.19193 1.25599 7.53383 1.25542C4.10973 1.25542 1.32499 4.02662 1.32363 7.43287C1.32316 8.60021 1.65134 9.73703 2.2727 10.7206L2.42034 10.9544L1.79322 13.2341L4.1427 12.6208ZM11.0385 9.03854C11.1686 9.10115 11.2566 9.14344 11.2941 9.20578C11.3407 9.28323 11.3407 9.65511 11.1853 10.089C11.0297 10.5228 10.2841 10.9188 9.9256 10.972C9.60411 11.0199 9.19722 11.0398 8.75018 10.8984C8.47914 10.8129 8.13159 10.6986 7.68633 10.5072C5.93686 9.75542 4.75454 8.06792 4.53107 7.74896C4.51542 7.72662 4.50449 7.71099 4.49836 7.70287L4.4969 7.70089C4.39814 7.56974 3.73638 6.69105 3.73638 5.78167C3.73638 4.92615 4.15861 4.47776 4.35298 4.27136C4.36632 4.25724 4.37857 4.24422 4.38951 4.2323C4.56059 4.04636 4.76275 3.99985 4.88715 3.99985C5.01155 3.99985 5.1361 4.00099 5.24485 4.00646C5.25825 4.00714 5.27222 4.00704 5.28661 4.00693C5.39536 4.00631 5.53096 4.00552 5.66473 4.32526C5.71617 4.44829 5.79148 4.63073 5.87087 4.82313C6.03143 5.21219 6.2089 5.64209 6.24009 5.70427C6.28677 5.79724 6.31785 5.90568 6.25563 6.02964C6.24631 6.04823 6.23768 6.06578 6.22941 6.08256C6.18268 6.1775 6.14835 6.24729 6.06901 6.33948C6.03787 6.37568 6.00563 6.41474 5.97339 6.4538C5.90918 6.53162 5.84502 6.60943 5.78913 6.66485C5.69566 6.75745 5.59842 6.85792 5.70728 7.04386C5.81613 7.22979 6.19068 7.83797 6.74542 8.33047C7.34182 8.85985 7.86014 9.0836 8.12285 9.19698C8.17414 9.21917 8.21569 9.23709 8.2462 9.25229C8.43272 9.34526 8.54158 9.32969 8.65048 9.20578C8.75934 9.08183 9.11699 8.66344 9.24133 8.47755C9.36573 8.29172 9.49018 8.32266 9.66121 8.38459C9.83234 8.44667 10.7498 8.89589 10.9364 8.98886C10.9729 9.00698 11.0069 9.02339 11.0385 9.03854Z" fill="#FDFDFD"/>
</svg>
