<svg width="31" height="31" viewBox="0 0 31 31" fill="none" xmlns="http://www.w3.org/2000/svg">
<path d="M0 30.1941H30.1941L0 0V30.1941ZM0.9375 25.9753H3.75V25.0378H0.9375V22.2253H2.8125V21.2878H0.9375V18.4753H3.75V17.5378H0.9375V14.7253H2.8125V13.7878H0.9375V10.9753H3.75V10.0378H0.9375V2.26312L27.9309 29.2566H0.9375V25.9753Z" fill="#242424"/>
<path d="M6.09375 13.125V25.9753H18.9441L6.09375 13.125ZM7.03125 15.3881L16.6809 25.0378H7.03125V15.3881Z" fill="#242424"/>
<path d="M30.1745 21.9323L29.0158 17.2983L11.7175 0L8.24219 3.47531L25.5405 20.7736L30.1745 21.9323ZM28.8855 20.6433L26.0195 19.927L12.3803 6.28781L14.53 4.13812L28.1692 17.7773L28.8855 20.6433ZM11.7175 1.32563L13.8672 3.47531L11.7175 5.625L9.56781 3.47531L11.7175 1.32563Z" fill="#242424"/>
</svg>
