<svg width="30" height="30" viewBox="0 0 30 30" fill="none" xmlns="http://www.w3.org/2000/svg">
<path d="M17.4102 20.9241L21.8923 13.717C21.9069 13.6937 21.9192 13.6692 21.9288 13.6438C22.7027 12.3816 23.1114 10.9398 23.1114 9.46779C23.1114 5.05174 19.5187 1.45898 15.1027 1.45898C10.6866 1.45898 7.09363 5.05174 7.09363 9.46779C7.09363 10.9401 7.50289 12.3825 8.27745 13.6456C8.28642 13.6677 8.29688 13.6892 8.30944 13.7102L12.6307 20.942C9.27623 21.4161 7.07031 22.7955 7.07031 24.4687C7.07031 26.5419 10.5934 28.1655 15.0907 28.1655C19.588 28.1655 23.1111 26.5416 23.1111 24.4687C23.1114 22.7877 20.8026 21.3776 17.4102 20.9241ZM9.08251 13.2417C8.36803 12.1045 7.99046 10.7996 7.99046 9.46779C7.99046 5.5462 11.1808 2.35583 15.1027 2.35583C19.0242 2.35583 22.2146 5.5462 22.2146 9.46779C22.2146 10.8002 21.837 12.1051 21.1228 13.2417C21.1079 13.2656 21.0956 13.2904 21.0857 13.3161L16.3505 20.9295C16.2793 21.0386 16.2653 21.0634 16.1783 21.2063L14.9825 23.1291L9.12257 13.3224C9.11211 13.2946 9.09865 13.2674 9.08251 13.2417ZM15.091 27.2686C10.8929 27.2686 7.96745 25.7927 7.96745 24.4687C7.96745 23.2669 10.1707 22.1345 13.1341 21.7838L14.59 24.2206C14.6704 24.3548 14.8145 24.4376 14.9708 24.4388C14.972 24.4388 14.9735 24.4388 14.9747 24.4388C15.1296 24.4388 15.2737 24.3587 15.3556 24.2271L16.8862 21.7662C19.8968 22.0924 22.2143 23.2535 22.2143 24.4687C22.2146 25.793 19.2891 27.2686 15.091 27.2686Z" fill="#242424"/>
<path d="M18.0037 9.46771C18.0037 7.86207 16.6973 6.55566 15.0917 6.55566C13.4861 6.55566 12.1797 7.86207 12.1797 9.46771C12.1797 11.0734 13.4861 12.3798 15.0917 12.3798C16.6973 12.3798 18.0037 11.0734 18.0037 9.46771ZM13.0765 9.46771C13.0765 8.35652 13.9805 7.45251 15.0917 7.45251C16.2029 7.45251 17.1069 8.35652 17.1069 9.46771C17.1069 10.5789 16.2032 11.4829 15.0917 11.4829C13.9802 11.4829 13.0765 10.5789 13.0765 9.46771Z" fill="#242424"/>
</svg>
