<svg width="29" height="23" viewBox="0 0 29 23" fill="none" xmlns="http://www.w3.org/2000/svg">
<path d="M27.5911 21.3613C25.7806 21.3613 23.9642 21.3613 22.1536 21.3613C18.4329 21.3613 14.7122 21.3613 10.9915 21.3613C7.9388 21.3613 4.89193 21.3613 1.83919 21.3613C1.37044 21.3613 0.901693 21.3613 0.432943 21.3613C0.579427 21.5078 0.725911 21.6543 0.872396 21.8008C0.872396 20.3653 0.872396 18.9297 0.872396 17.4883C0.872396 16.9258 0.872396 16.3633 0.872396 15.8008C0.872396 14.6289 1.26497 13.4688 1.99154 12.5488C2.78841 11.5469 3.91341 10.8906 5.16146 10.6446C5.59505 10.5625 6.04036 10.5625 6.47982 10.5625C7.76302 10.5625 9.05208 10.5625 10.3353 10.5625C13.804 10.5625 17.2728 10.5625 20.7474 10.5625C21.1107 10.5625 21.474 10.5625 21.8431 10.5625C22.6986 10.5625 23.5306 10.7383 24.2982 11.125C25.4056 11.6875 26.3021 12.6543 26.7708 13.8028C27.0814 14.5703 27.1576 15.3555 27.1576 16.1758C27.1576 18.0449 27.1576 19.9199 27.1576 21.7891C27.1576 22.3574 28.0365 22.3574 28.0365 21.7891C28.0365 20.3535 28.0365 18.918 28.0365 17.4766C28.0365 16.9141 28.0365 16.3516 28.0365 15.7891C28.0365 14.5528 27.6615 13.3281 26.9583 12.3145C25.7689 10.5918 23.8236 9.67775 21.7552 9.67775C20.6068 9.67775 19.4583 9.67775 18.3099 9.67775C14.7767 9.67775 11.2376 9.67775 7.70443 9.67775C6.6263 9.67775 5.5306 9.6133 4.48177 9.89455C1.85091 10.5977 0.0227865 13.082 0.00520833 15.7774C-0.00651042 17.7813 0.00520833 19.7852 0.00520833 21.7832C0.00520833 22.0235 0.204427 22.2227 0.444661 22.2227C2.25521 22.2227 4.07161 22.2227 5.88216 22.2227C9.60287 22.2227 13.3236 22.2227 17.0443 22.2227C20.097 22.2227 23.1439 22.2227 26.1966 22.2227C26.6654 22.2227 27.1341 22.2227 27.6029 22.2227C28.1595 22.2403 28.1595 21.3613 27.5911 21.3613Z" fill="#242424"/>
<path d="M0.545911 18.1504C2.35646 17.7344 4.2256 17.1075 6.1006 17.4121C7.18458 17.5879 8.20411 17.9336 9.32325 17.9688C10.4307 17.9981 11.4795 17.711 12.5518 17.4766C13.4365 17.2774 14.374 17.2774 15.2705 17.4356C15.6865 17.5059 16.0967 17.6172 16.5068 17.711C17.8604 18.0215 19.1846 18.0332 20.544 17.7227C20.9365 17.6348 21.3233 17.5352 21.7158 17.4532C22.6065 17.2715 23.544 17.2832 24.4346 17.4532C25.1787 17.5938 25.9111 17.793 26.6494 17.9571C26.9307 18.0215 27.2061 18.086 27.4873 18.1504C28.0381 18.2793 28.2725 17.4297 27.7217 17.3008C25.8994 16.8789 24.0361 16.2754 22.1436 16.4981C21.0596 16.627 20.0283 17.0137 18.9326 17.0782C17.8252 17.1426 16.7881 16.8614 15.7217 16.627C14.8252 16.4278 13.8936 16.3985 12.9795 16.5157C12.4815 16.5801 11.9951 16.7032 11.5029 16.8145C10.9287 16.9493 10.3604 17.0606 9.76857 17.084C9.07716 17.1133 8.40333 17.0254 7.7295 16.8672C6.42286 16.5684 5.15724 16.3282 3.80958 16.5274C2.98927 16.6446 2.18068 16.8731 1.37794 17.0547C1.02638 17.1368 0.674817 17.2188 0.323254 17.295C-0.239246 17.4356 -0.00487056 18.2793 0.545911 18.1504Z" fill="#242424"/>
<path d="M1.86691 12.5898C1.86691 9.87695 1.86691 7.1582 1.86691 4.44531C1.86691 2.23047 4.03488 0.888672 6.06223 0.888672C6.99973 0.888672 7.93723 0.888672 8.87473 0.888672C12.4607 0.888672 16.0525 0.888672 19.6384 0.888672C20.4529 0.888672 21.2673 0.882813 22.0818 0.888672C23.3591 0.900391 24.7009 1.45117 25.4919 2.48242C25.9782 3.11523 26.1599 3.83594 26.1599 4.62109C26.1599 7.27539 26.1599 9.93555 26.1599 12.5898C26.1599 13.1582 27.0388 13.1582 27.0388 12.5898C27.0388 9.87695 27.0388 7.1582 27.0388 4.44531C27.0388 1.82031 24.613 0.109375 22.1696 0.015625C21.3435 -0.0195312 20.5114 0.015625 19.6853 0.015625C16.0993 0.015625 12.5075 0.015625 8.9216 0.015625C7.97238 0.015625 7.0173 0.015625 6.06809 0.015625C3.6423 0.015625 1.19308 1.60352 0.993866 4.16992C0.95871 4.5918 0.988007 5.02539 0.988007 5.44727C0.988007 6.30859 0.988007 7.16992 0.988007 8.03125C0.988007 9.52539 0.988007 11.0137 0.988007 12.5078C0.988007 12.5371 0.988007 12.5664 0.988007 12.5957C0.988007 13.1582 1.86691 13.1582 1.86691 12.5898Z" fill="#242424"/>
<path d="M12.4779 9.6953C11.06 9.6953 9.64199 9.6953 8.22402 9.6953C7.57949 9.6953 6.93496 9.6953 6.29042 9.6953C6.09121 9.6953 5.933 9.61327 5.933 9.39061C5.933 9.08006 5.933 8.76366 5.933 8.45311C5.933 7.73241 5.933 7.00585 5.933 6.28514C5.933 6.02733 6.16738 6.00975 6.36074 6.00975C6.63027 6.00975 6.90566 6.00975 7.17519 6.00975C8.84511 6.00975 10.515 6.00975 12.185 6.00975C12.4076 6.00975 12.7299 5.96288 12.7475 6.28514C12.765 6.60741 12.7475 6.93553 12.7475 7.2578C12.7475 7.80858 12.7475 8.3535 12.7475 8.90428C12.7475 9.14452 12.8529 9.67186 12.4779 9.6953C11.9154 9.7246 11.9096 10.6035 12.4779 10.5742C13.1225 10.539 13.6322 10.0586 13.6322 9.40233C13.6322 9.1035 13.6322 8.80467 13.6322 8.50585C13.6322 7.76756 13.6322 7.02928 13.6322 6.28514C13.6322 5.65819 13.1107 5.12499 12.4779 5.12499C12.3197 5.12499 12.1674 5.12499 12.0092 5.12499C11.1889 5.12499 10.3685 5.12499 9.54824 5.12499C8.67519 5.12499 7.80214 5.12499 6.9291 5.12499C6.23183 5.12499 5.45253 5.06639 5.13613 5.86327C5.0248 6.14452 5.05996 6.46092 5.05996 6.75389C5.05996 7.20506 5.05996 7.65624 5.05996 8.10741C5.05996 8.49413 5.05996 8.87499 5.05996 9.2617C5.05996 9.74217 5.2123 10.1406 5.62831 10.416C5.98574 10.6504 6.55996 10.5742 6.97011 10.5742C7.69081 10.5742 8.41738 10.5742 9.13808 10.5742C10.2514 10.5742 11.3646 10.5742 12.4779 10.5742C13.0463 10.5742 13.0463 9.6953 12.4779 9.6953Z" fill="#242424"/>
<path d="M21.806 9.6953C20.3881 9.6953 18.9701 9.6953 17.5521 9.6953C16.9076 9.6953 16.2631 9.6953 15.6185 9.6953C15.4193 9.6953 15.2611 9.61327 15.2611 9.39061C15.2611 9.08006 15.2611 8.76366 15.2611 8.45311C15.2611 7.73241 15.2611 7.00585 15.2611 6.28514C15.2611 6.02733 15.4955 6.00975 15.6889 6.00975C15.9584 6.00975 16.2338 6.00975 16.5033 6.00975C18.1732 6.00975 19.8432 6.00975 21.5131 6.00975C21.7357 6.00975 22.058 5.96288 22.0756 6.28514C22.0932 6.60741 22.0756 6.93553 22.0756 7.2578C22.0756 7.80858 22.0756 8.3535 22.0756 8.90428C22.0814 9.14452 22.181 9.67186 21.806 9.6953C21.2435 9.7246 21.2377 10.6035 21.806 10.5742C22.4506 10.539 22.9603 10.0586 22.9603 9.40233C22.9603 9.1035 22.9603 8.80467 22.9603 8.50585C22.9603 7.76756 22.9603 7.02928 22.9603 6.28514C22.9603 5.65819 22.4389 5.12499 21.806 5.12499C21.6478 5.12499 21.4955 5.12499 21.3373 5.12499C20.517 5.12499 19.6967 5.12499 18.8764 5.12499C18.0033 5.12499 17.1303 5.12499 16.2572 5.12499C15.56 5.12499 14.7807 5.06639 14.4643 5.86327C14.3529 6.14452 14.3881 6.46092 14.3881 6.75389C14.3881 7.20506 14.3881 7.65624 14.3881 8.10741C14.3881 8.49413 14.3881 8.87499 14.3881 9.2617C14.3881 9.74217 14.5404 10.1406 14.9564 10.416C15.3139 10.6504 15.8881 10.5742 16.2982 10.5742C17.0189 10.5742 17.7455 10.5742 18.4662 10.5742C19.5795 10.5742 20.6928 10.5742 21.806 10.5742C22.3744 10.5742 22.3744 9.6953 21.806 9.6953Z" fill="#242424"/>
</svg>
