<svg width="30" height="30" viewBox="0 0 30 30" fill="none" xmlns="http://www.w3.org/2000/svg">
<path d="M15 26.1328C21.1485 26.1328 26.1328 21.1485 26.1328 15C26.1328 8.85152 21.1485 3.86719 15 3.86719C8.85152 3.86719 3.86719 8.85152 3.86719 15C3.86719 21.1485 8.85152 26.1328 15 26.1328Z" fill="white"/>
<path d="M15 15.7031C14.6016 15.7031 14.2969 15.3984 14.2969 15V7.96875C14.2969 7.57031 14.6016 7.26562 15 7.26562C15.3984 7.26562 15.7031 7.57031 15.7031 7.96875V15C15.7031 15.3984 15.3984 15.7031 15 15.7031Z" fill="#242424"/>
<path d="M19.6875 15.7031H15C14.6016 15.7031 14.2969 15.3984 14.2969 15C14.2969 14.6016 14.6016 14.2969 15 14.2969H19.6875C20.0859 14.2969 20.3906 14.6016 20.3906 15C20.3906 15.3984 20.0859 15.7031 19.6875 15.7031Z" fill="#242424"/>
<path d="M15 16.4062C15.7767 16.4062 16.4062 15.7767 16.4062 15C16.4062 14.2233 15.7767 13.5938 15 13.5938C14.2233 13.5938 13.5938 14.2233 13.5938 15C13.5938 15.7767 14.2233 16.4062 15 16.4062Z" fill="#242424"/>
<path d="M15 26.8359C8.48438 26.8359 3.16406 21.5156 3.16406 15C3.16406 8.48438 8.48438 3.16406 15 3.16406C21.5156 3.16406 26.8359 8.48438 26.8359 15C26.8359 21.5156 21.5156 26.8359 15 26.8359ZM15 4.57031C9.25781 4.57031 4.57031 9.25781 4.57031 15C4.57031 20.7422 9.25781 25.4297 15 25.4297C20.7422 25.4297 25.4297 20.7422 25.4297 15C25.4297 9.25781 20.7422 4.57031 15 4.57031Z" fill="#242424"/>
</svg>
