<svg width="30" height="30" viewBox="0 0 30 30" fill="none" xmlns="http://www.w3.org/2000/svg">
<path d="M28.4945 17.8589C28.6581 17.5089 28.6763 17.1135 28.5445 16.7453L25.8217 9.27255C26.2172 8.70437 26.4536 8.018 26.4536 7.27709C26.4536 5.93619 25.6945 4.77255 24.5854 4.19073V2.30891C24.5854 1.41346 23.8581 0.681641 22.9581 0.681641C22.0626 0.681641 21.3308 1.40891 21.3308 2.30891V4.19073C20.2217 4.7771 19.4626 5.94073 19.4626 7.27709C19.4626 8.018 19.699 8.70437 20.0945 9.27255L19.0626 12.1135H5.82173V11.3316C5.82173 10.1044 4.82173 9.10437 3.59446 9.10437C2.36719 9.10437 1.36719 10.1044 1.36719 11.3316V27.0862C1.36719 27.0862 1.36719 27.0862 1.36719 27.0907C1.36719 27.0953 1.36719 27.0907 1.36719 27.0953C1.36719 28.3225 2.36719 29.3225 3.59446 29.3225H26.1672C26.2945 29.3225 26.3945 29.2225 26.3945 29.0953V18.4725C26.6263 18.618 26.8945 18.7044 27.1763 18.7044C27.2672 18.7044 27.3626 18.6953 27.4536 18.6771L27.9263 19.9589C27.9581 20.0498 28.049 20.1089 28.1399 20.1089C28.1672 20.1089 28.1945 20.1044 28.2172 20.0953C28.3354 20.0498 28.3945 19.9225 28.3536 19.8044L27.8808 18.5225C28.1445 18.368 28.3626 18.1453 28.4945 17.8589ZM21.7899 3.99073V2.30891C21.7899 1.66346 22.3172 1.13619 22.9626 1.13619C23.6081 1.13619 24.1354 1.66346 24.1354 2.30891V3.99073C24.1308 3.99073 24.1217 3.98619 24.1172 3.98619C23.9445 3.9271 23.7672 3.87709 23.5854 3.84528C23.5581 3.84073 23.5354 3.83619 23.5081 3.83164C23.3308 3.80437 23.1536 3.78619 22.9672 3.78619H22.9626H22.9581C22.7763 3.78619 22.599 3.80437 22.4217 3.83164C22.3945 3.83619 22.3672 3.84073 22.3399 3.84528C22.1581 3.87709 21.9854 3.9271 21.8172 3.98619C21.8036 3.98619 21.7945 3.98619 21.7899 3.99073ZM21.6763 4.5271C21.7672 4.48164 21.8626 4.44528 21.9581 4.41346C21.9672 4.40891 21.9717 4.40891 21.9808 4.40437C22.0854 4.368 22.1899 4.34073 22.2945 4.31346H22.299C22.8445 4.19073 23.4081 4.22255 23.9445 4.40437C23.949 4.40437 23.949 4.40437 23.9536 4.40891C24.0536 4.44528 24.1536 4.48619 24.2536 4.53164C25.2854 5.018 25.999 6.06346 25.999 7.27709C25.999 8.95437 24.6354 10.3135 22.9626 10.3135C21.2899 10.3135 19.9263 8.94982 19.9263 7.27709C19.9217 6.06346 20.6445 5.01346 21.6763 4.5271ZM22.9581 10.7725C23.0626 10.7725 23.1626 10.768 23.2626 10.7589L23.7581 12.118H22.1626L22.6581 10.7589C22.7581 10.7635 22.8581 10.7725 22.9581 10.7725ZM22.199 10.6862L19.6854 17.5907C19.5945 17.8407 19.4081 18.0407 19.1672 18.1544C18.9263 18.268 18.6536 18.2771 18.4036 18.1862C18.1536 18.0953 17.9536 17.9089 17.8399 17.668C17.7263 17.4271 17.7172 17.1544 17.8081 16.9044L20.4354 9.68164C20.9036 10.1771 21.5126 10.5316 22.199 10.6862ZM1.82173 11.3316C1.82173 10.3544 2.61719 9.55891 3.59446 9.55891C4.57173 9.55891 5.36719 10.3544 5.36719 11.3316V25.7407C4.9581 25.2044 4.31719 24.8589 3.59446 24.8589C2.87173 24.8589 2.23082 25.2044 1.82173 25.7407V11.3316ZM3.59446 28.8635C2.61719 28.8635 1.82173 28.068 1.82173 27.0907V27.0862C1.82173 26.1089 2.61719 25.3135 3.59446 25.3135C4.57173 25.3135 5.36719 26.1089 5.36719 27.0862C5.36719 27.2135 5.46719 27.3135 5.59446 27.3135C5.72173 27.3135 5.82173 27.2135 5.82173 27.0862V12.568H18.899L17.3763 16.7498C17.1399 17.3953 17.3945 18.0953 17.9445 18.4589L17.449 19.7998C17.4036 19.918 17.4672 20.0498 17.5854 20.0907C17.6126 20.0998 17.6399 20.1044 17.6626 20.1044C17.7536 20.1044 17.8399 20.0453 17.8763 19.9544L18.3581 18.6407C18.4854 18.6771 18.6126 18.6998 18.7399 18.6998C19.3354 18.6998 19.8945 18.3316 20.1081 17.7407L21.9899 12.5635H23.9172L25.799 17.7407C25.8354 17.8362 25.8808 17.9226 25.9308 18.0044V28.8635H3.59446ZM27.5172 18.1862C27.2672 18.2771 26.9945 18.2635 26.7536 18.1544C26.5126 18.0407 26.3263 17.8407 26.2354 17.5907L23.7217 10.6862C24.4081 10.5316 25.0172 10.1771 25.4854 9.68619L28.1126 16.9089C28.2036 17.1589 28.1945 17.4316 28.0808 17.6726C27.9672 17.9135 27.7672 18.0953 27.5172 18.1862Z" fill="#242424"/>
<path d="M22.9557 8.54515C23.6557 8.54515 24.2239 7.97697 24.2239 7.27697C24.2239 6.57697 23.6557 6.00879 22.9557 6.00879C22.2557 6.00879 21.6875 6.57697 21.6875 7.27697C21.692 7.97697 22.2557 8.54515 22.9557 8.54515Z" fill="#242424"/>
<path d="M16.4418 21.4633L15.8236 21.3678C15.7327 21.0497 15.6009 20.7451 15.4372 20.4451L15.8145 19.9451C15.9554 19.7633 15.9372 19.4997 15.7736 19.336L15.0599 18.6224C14.8963 18.4587 14.6327 18.4406 14.4509 18.5815L13.9281 18.9678C13.6418 18.8042 13.3372 18.6815 13.0145 18.5951L12.9281 17.9587C12.8963 17.7269 12.6963 17.5542 12.4645 17.5542H11.4554C11.2236 17.5542 11.0236 17.7269 10.9918 17.9587L10.8918 18.5997C10.5736 18.6906 10.269 18.8133 9.98722 18.9724L9.47813 18.586C9.29631 18.4451 9.03267 18.4633 8.86903 18.6269L8.15085 19.3451C7.98722 19.5087 7.96903 19.7724 8.10994 19.9497L8.48267 20.4633C8.31903 20.7497 8.19176 21.0542 8.09176 21.386L7.48267 21.4724C7.2554 21.5042 7.07812 21.7042 7.07812 21.936V22.9451C7.07812 23.1769 7.25085 23.3769 7.48267 23.4087L8.08267 23.4997C8.16449 23.8269 8.29631 24.1451 8.46903 24.4633L8.10994 24.9315C7.96903 25.1224 7.98722 25.3769 8.1554 25.5406L8.86903 26.2497C9.03267 26.4133 9.29631 26.4315 9.47813 26.2906L9.94631 25.9451C10.2463 26.1224 10.569 26.2587 10.9236 26.3542L11.0009 26.9178C11.0327 27.1497 11.2327 27.3224 11.4645 27.3224H12.4736C12.7054 27.3224 12.9054 27.1497 12.9372 26.9178L13.0236 26.3497C13.3554 26.2633 13.6827 26.1269 14.0009 25.9406L14.4554 26.286C14.6372 26.4269 14.9009 26.4087 15.0645 26.2451L15.7827 25.5315C15.9463 25.3678 15.9645 25.1087 15.8236 24.9178L15.4736 24.4406C15.6418 24.136 15.7736 23.8178 15.8599 23.4815L16.4554 23.3997C16.6872 23.3678 16.8599 23.1678 16.8599 22.936V21.9269C16.8463 21.6951 16.669 21.4951 16.4418 21.4633ZM16.3781 22.9451L15.7872 23.0269C15.6054 23.0497 15.4554 23.186 15.4009 23.3724C15.3281 23.6587 15.2145 23.9451 15.0599 24.2133C14.969 24.3724 14.9827 24.5724 15.0918 24.7224L15.4463 25.2042L14.719 25.9178L14.2554 25.5633C14.1054 25.4587 13.9099 25.4497 13.7463 25.5406C13.4736 25.6997 13.1918 25.8224 12.8963 25.8997C12.7145 25.9497 12.5781 26.0997 12.5509 26.2815L12.4645 26.8542L11.4463 26.8451L11.369 26.2815C11.3463 26.0951 11.2099 25.9451 11.0236 25.8906C10.7236 25.8133 10.4372 25.6906 10.169 25.536C10.0918 25.4951 10.0099 25.4724 9.93267 25.4724C9.83267 25.4724 9.73722 25.5042 9.65994 25.5678L9.19176 25.9133L8.47358 25.186L8.83267 24.7133C8.93722 24.5678 8.95085 24.3678 8.85994 24.2042C8.70994 23.936 8.59631 23.6542 8.51903 23.3633C8.46903 23.1815 8.31903 23.0451 8.13722 23.0224L7.53267 22.9315L7.54631 21.9087L8.1554 21.8224C8.34176 21.7997 8.48722 21.6678 8.53722 21.486C8.61903 21.1997 8.73722 20.9269 8.87813 20.6815C8.97813 20.5133 8.96449 20.3133 8.85085 20.1633L8.47358 19.6497L9.20085 18.9315L9.71903 19.3224C9.86903 19.4315 10.0645 19.4406 10.219 19.3497C10.4645 19.2133 10.7327 19.1042 11.0145 19.0224C11.1918 18.9724 11.3236 18.8315 11.3554 18.636L11.4509 17.9906L12.469 17.9997L12.5554 18.6451C12.5872 18.8269 12.719 18.9678 12.8963 19.0178C13.169 19.0906 13.4372 19.1997 13.6872 19.3406C13.8463 19.4315 14.0418 19.4224 14.1963 19.3133L14.719 18.9224L15.4372 19.6497L15.0645 20.1451C14.9463 20.2951 14.9372 20.4997 15.0327 20.6587C15.1781 20.9133 15.2918 21.186 15.3736 21.4678C15.4236 21.6542 15.5736 21.7815 15.7554 21.8087L16.3645 21.8951L16.3963 21.6678L16.3781 22.9451Z" fill="#242424"/>
<path d="M11.9631 20.2451C10.7585 20.2451 9.78125 21.2269 9.78125 22.4315C9.78125 23.636 10.7585 24.6133 11.9631 24.6133C13.1676 24.6133 14.1449 23.636 14.1449 22.4315C14.1494 21.2269 13.1676 20.2451 11.9631 20.2451ZM11.9631 24.1633C11.0085 24.1633 10.2358 23.386 10.2358 22.436C10.2358 21.4815 11.0131 20.7042 11.9631 20.7042C12.9176 20.7042 13.6903 21.4815 13.6903 22.436C13.6949 23.386 12.9176 24.1633 11.9631 24.1633Z" fill="#242424"/>
<path d="M23.6416 26.3906H18.7507C18.6234 26.3906 18.5234 26.4906 18.5234 26.6179C18.5234 26.7452 18.6234 26.8452 18.7507 26.8452H23.6416C23.7689 26.8452 23.8689 26.7452 23.8689 26.6179C23.8689 26.4906 23.7689 26.3906 23.6416 26.3906Z" fill="#242424"/>
<path d="M23.6416 24.6045H18.7507C18.6234 24.6045 18.5234 24.7045 18.5234 24.8318C18.5234 24.959 18.6234 25.059 18.7507 25.059H23.6416C23.7689 25.059 23.8689 24.959 23.8689 24.8318C23.8689 24.7045 23.7689 24.6045 23.6416 24.6045Z" fill="#242424"/>
<path d="M23.6399 22.8135H21.0945C20.9672 22.8135 20.8672 22.9135 20.8672 23.0407C20.8672 23.168 20.9672 23.268 21.0945 23.268H23.6399C23.7672 23.268 23.8672 23.168 23.8672 23.0407C23.8672 22.9135 23.7672 22.8135 23.6399 22.8135Z" fill="#242424"/>
<path d="M7.85227 16.4043H12.3705C12.4977 16.4043 12.5977 16.3043 12.5977 16.177C12.5977 16.0497 12.4977 15.9497 12.3705 15.9497H7.85227C7.725 15.9497 7.625 16.0497 7.625 16.177C7.625 16.3043 7.725 16.4043 7.85227 16.4043Z" fill="#242424"/>
<path d="M7.85227 14.6132H12.3705C12.4977 14.6132 12.5977 14.5132 12.5977 14.386C12.5977 14.2587 12.4977 14.1587 12.3705 14.1587H7.85227C7.725 14.1587 7.625 14.2587 7.625 14.386C7.625 14.5132 7.725 14.6132 7.85227 14.6132Z" fill="#242424"/>
<path d="M1.59446 7.25904H18.5308C18.6581 7.25904 18.7581 7.15904 18.7581 7.03177V2.08176C18.7581 1.95449 18.6581 1.85449 18.5308 1.85449H1.59446C1.46719 1.85449 1.36719 1.95449 1.36719 2.08176V7.03177C1.36719 7.15449 1.46719 7.25904 1.59446 7.25904ZM1.82173 2.30904H3.2581V3.28176C3.2581 3.40904 3.3581 3.50904 3.48537 3.50904C3.61264 3.50904 3.71264 3.40904 3.71264 3.28176V2.30904H5.13991V4.4454C5.13991 4.57267 5.23991 4.67267 5.36719 4.67267C5.49446 4.67267 5.59446 4.57267 5.59446 4.4454V2.30904H7.02173V3.28176C7.02173 3.40904 7.12173 3.50904 7.24901 3.50904C7.37628 3.50904 7.47628 3.40904 7.47628 3.28176V2.30904H8.90355V4.4454C8.90355 4.57267 9.00355 4.67267 9.13082 4.67267C9.2581 4.67267 9.3581 4.57267 9.3581 4.4454V2.30904H10.7854V3.28176C10.7854 3.40904 10.8854 3.50904 11.0126 3.50904C11.1399 3.50904 11.2399 3.40904 11.2399 3.28176V2.30904H12.6672V4.4454C12.6672 4.57267 12.7672 4.67267 12.8945 4.67267C13.0217 4.67267 13.1217 4.57267 13.1217 4.4454V2.30904H14.549V3.28176C14.549 3.40904 14.649 3.50904 14.7763 3.50904C14.9036 3.50904 15.0035 3.40904 15.0035 3.28176V2.30904H16.4308V4.4454C16.4308 4.57267 16.5308 4.67267 16.6581 4.67267C16.7854 4.67267 16.8854 4.57267 16.8854 4.4454V2.30904H18.3217V6.80449H1.82173V2.30904Z" fill="#242424"/>
</svg>
