<svg width="33" height="32" viewBox="0 0 33 32" fill="none" xmlns="http://www.w3.org/2000/svg">
<path d="M1.54688 26.8125H0.515625C0.515625 29.2359 2.475 31.1953 4.89844 31.1953H32.4844V4.38281H5.41406V0.515625H4.89844C2.475 0.515625 0.515625 2.475 0.515625 4.89844V26.8125H1.54688C1.54688 24.9562 3.04219 23.4609 4.89844 23.4609H5.41406V5.41406H31.4531V30.1641H4.89844C3.04219 30.1641 1.54688 28.6688 1.54688 26.8125ZM4.38281 22.4555C3.24844 22.5844 2.24297 23.1516 1.54688 23.9766V4.89844C1.54688 3.22266 2.78437 1.83047 4.38281 1.59844V22.4555Z" fill="black"/>
<path d="M26.5547 7.47656H23.4609V24.8789L25.0078 27.9727L26.5547 24.8789V7.47656ZM25.5234 8.50781V11.3438H24.4922V8.50781H25.5234ZM25.0078 25.6523L24.4922 24.6211V12.375H25.5234V24.6211L25.0078 25.6523Z" fill="black"/>
<path d="M10.8281 19.8516V20.8828H12.8906L11.6016 28.0242L12.607 28.2047L13.9219 20.8828H17.0156L18.3305 28.2047L19.3359 28.0242L18.0469 20.8828H20.1094V19.8516H17.8664L17.2734 16.4484C18.0727 15.8812 18.5625 14.9273 18.5625 13.9219C18.5625 12.4008 17.4539 11.1117 15.9844 10.8797V7.47656H14.9531V10.8797C13.4836 11.1375 12.375 12.4008 12.375 13.9219C12.375 14.9273 12.8648 15.8555 13.6641 16.4484L13.0711 19.8516H10.8281ZM14.4891 15.7266C13.8188 15.3656 13.4062 14.6695 13.4062 13.9219C13.4062 12.7875 14.3344 11.8594 15.4688 11.8594C16.6031 11.8594 17.5312 12.7875 17.5312 13.9219C17.5312 14.6695 17.1187 15.3656 16.4484 15.7266L16.1133 15.907L16.8352 19.8516H14.1023L14.7984 15.907L14.4891 15.7266Z" fill="black"/>
</svg>
