<svg width="33" height="32" viewBox="0 0 33 32" fill="none" xmlns="http://www.w3.org/2000/svg">
<path d="M4.89844 31.1953H32.4844V4.38281H5.41406V0.515625H4.89844C2.475 0.515625 0.515625 2.475 0.515625 4.89844V26.8125C0.515625 29.2359 2.475 31.1953 4.89844 31.1953ZM1.54688 4.89844C1.54688 3.22266 2.78437 1.83047 4.38281 1.59844V11.9883C4.38281 16.5 4.38281 21.0117 4.38281 22.4555C3.24844 22.5844 2.24297 23.1516 1.54688 23.9766V4.89844ZM1.54688 26.8125C1.54688 24.9562 3.04219 23.4609 4.89844 23.4609H5.41406V5.41406H31.4531V30.1641H4.89844C3.04219 30.1641 1.54688 28.6688 1.54688 26.8125Z" fill="black"/>
<path d="M28.875 13.1484H20.1094V12.6328H19.0781V14.1797H27.8438V26.5547H20.1094V17.2734H19.0781V26.5547H9.02344V14.1797H14.9531V12.375H13.9219V13.1484H9.02344V9.02344H19.0781V9.53906H20.1094V7.99219H7.99219V27.5859H28.875V13.1484Z" fill="black"/>
</svg>
