<svg width="33" height="33" viewBox="0 0 33 33" fill="none" xmlns="http://www.w3.org/2000/svg">
<path d="M28.2563 10.0289L30.4477 7.8375L26.0391 3.42891V0.515625H6.96094V3.42891L2.55234 7.8375L4.74375 10.0289C4.25391 10.9055 3.89297 11.8078 3.60938 12.7617H0.515625V20.2383H3.60938C3.89297 21.1922 4.25391 22.0945 4.74375 22.9711L2.55234 25.1625L7.8375 30.4477L10.0289 28.2563C10.9055 28.7461 11.8078 29.107 12.7617 29.3906V32.4844H20.2383V29.3906C21.1922 29.107 22.0945 28.7461 22.9711 28.2563L25.1625 30.4477L30.4477 25.1625L28.2563 22.9711C28.7461 22.0945 29.107 21.1922 29.3906 20.2383H32.4844V12.7617H29.3906C29.107 11.8078 28.7203 10.9055 28.2563 10.0289ZM7.99219 1.54688H25.0078V25.0078H16.5C11.8078 25.0078 7.99219 21.1922 7.99219 16.5V1.54688ZM31.4531 19.207H28.5914L28.4883 19.5938C28.2047 20.7023 27.7664 21.7852 27.1734 22.7906L26.9672 23.1258L29.0039 25.1625L25.1883 28.9781L23.1516 26.9414L22.8164 27.1477C21.8109 27.7406 20.7281 28.1789 19.6195 28.4625L19.2328 28.5656V31.4531H13.8187V28.5914L13.432 28.4883C12.3234 28.2047 11.2406 27.7664 10.2352 27.1734L9.9 26.9672L7.86328 29.0039L4.02188 25.1625L6.05859 23.1258L5.85234 22.7906C5.25938 21.7852 4.82109 20.7023 4.5375 19.5938L4.43438 19.207H1.54688V13.793H4.40859L4.51172 13.4062C4.79531 12.2977 5.23359 11.2148 5.82656 10.2094L6.03281 9.87422L3.99609 7.8375L6.96094 4.89844V16.5C6.96094 21.7594 11.2406 26.0391 16.5 26.0391H26.0391V4.89844L28.9781 7.8375L26.9414 9.87422L27.1477 10.2094C27.7406 11.2148 28.1789 12.2977 28.4625 13.4062L28.5656 13.793H31.4531V19.207Z" fill="black"/>
<path d="M22.9453 8.25H10.0547V9.28125H22.9453V8.25Z" fill="black"/>
<path d="M22.9453 10.8281H10.0547V11.8594H22.9453V10.8281Z" fill="black"/>
<path d="M22.9453 13.4062H10.0547V14.4375H22.9453V13.4062Z" fill="black"/>
<path d="M22.9453 15.9844H10.0547V17.0156H22.9453V15.9844Z" fill="black"/>
<path d="M22.9453 18.5625H20.3672V19.5938H22.9453V18.5625Z" fill="black"/>
<path d="M20.3672 3.09375H12.6328V4.125H20.3672V3.09375Z" fill="black"/>
</svg>
