<svg width="32" height="26" viewBox="0 0 32 26" fill="none" xmlns="http://www.w3.org/2000/svg">
<path d="M25.8569 17.0539L9.98938 19.7352C9.38438 17.982 7.59688 16.7188 5.53438 16.7188C2.94938 16.7188 0.859375 18.6781 0.859375 21.1016C0.859375 23.525 2.94938 25.4844 5.53438 25.4844C8.11938 25.4844 10.2094 23.525 10.2094 21.1016C10.2094 20.9984 10.2094 20.8695 10.1819 20.7664L18.5419 19.3484L20.9894 24.2469C21.3469 24.9945 22.1169 25.4328 22.9694 25.4328C23.0244 25.4328 23.1069 25.4328 23.1619 25.4328C24.0969 25.3555 24.8669 24.7625 25.0869 23.9117L29.3219 8.59766H33.0344V7.56641H28.4969L25.8569 17.0539ZM9.10938 21.1016C9.10938 22.9578 7.51438 24.4531 5.53438 24.4531C3.55438 24.4531 1.95938 22.9578 1.95938 21.1016C1.95938 19.2453 3.55438 17.75 5.53438 17.75C7.07438 17.75 8.36688 18.6523 8.88938 19.9414L5.01188 20.5859L5.20437 21.5914L9.10938 20.9211C9.10938 20.9984 9.10938 21.05 9.10938 21.1016ZM24.0419 23.6539C23.9044 24.1695 23.4369 24.3758 23.0794 24.4273C22.6944 24.4531 22.2269 24.3242 21.9794 23.8344L19.6694 19.168L25.5544 18.1625L24.0419 23.6539Z" fill="black"/>
<path d="M4.15625 5.375H0.03125V6.32891L8.30875 16.1773C9.46375 17.5438 11.1963 18.343 13.0663 18.343C13.4238 18.343 13.7538 18.3172 14.1113 18.2656L23.1313 16.7703C24.3962 16.5641 25.4412 15.6875 25.7712 14.5016L28.0813 6.2V5.375H23.4062C21.1788 2.46172 17.6038 0.734375 13.7812 0.734375C9.95875 0.734375 6.38375 2.46172 4.15625 5.375ZM24.6987 14.2438C24.4788 15.0172 23.7913 15.6102 22.9388 15.7648L13.8913 17.2344C13.6163 17.2859 13.3413 17.3117 13.0387 17.3117C11.4987 17.3117 10.0963 16.6672 9.16125 15.5328L1.48875 6.40625H26.8713L24.6987 14.2438ZM13.7812 1.76562C17.0263 1.76562 19.9963 3.08047 22.0312 5.375H5.53125C7.56625 3.08047 10.5363 1.76562 13.7812 1.76562Z" fill="black"/>
</svg>
