<svg width="33" height="33" viewBox="0 0 33 33" fill="none" xmlns="http://www.w3.org/2000/svg">
<path d="M4.38594 16.4486V32.4846H28.6203V16.4486L30.6828 18.5111L32.6938 16.5002L28.6203 12.4268V3.09395H23.7219V7.52832L16.5031 0.30957L0.3125 16.5002L2.32344 18.5111L4.38594 16.4486ZM27.5891 15.4689V31.4533H5.41719V15.4689H5.36562L16.5031 4.33145L27.6406 15.4689H27.5891ZM16.5031 1.75332L24.7531 10.0033V4.1252H27.5891V12.8393L31.25 16.5002L30.6828 17.0674L16.5031 2.8877L2.32344 17.0674L1.75625 16.5002L16.5031 1.75332Z" fill="black"/>
<path d="M14.6437 14.1797V15.5461C14.3859 15.6234 14.1281 15.7523 13.8703 15.8812L12.8906 14.9016L10.2609 17.5312L11.2406 18.5109C11.1117 18.7688 11.0086 19.0266 10.9055 19.2844H9.53906V22.9969H10.9055C10.9828 23.2547 11.1117 23.5125 11.2406 23.7703L10.2609 24.75L12.8906 27.3797L13.8703 26.4C14.1281 26.5289 14.3859 26.632 14.6437 26.7352V28.1016H18.3562V26.7352C18.6141 26.6578 18.8719 26.5289 19.1297 26.4L20.1094 27.3797L22.7391 24.75L21.7594 23.7703C21.8883 23.5125 21.9914 23.2547 22.0945 22.9969H23.4609V19.2844H22.0945C22.0172 19.0266 21.8883 18.7688 21.7594 18.5109L22.7391 17.5312L20.1094 14.9016L19.1297 15.8812C18.8719 15.7523 18.6141 15.6492 18.3562 15.5461V14.1797H14.6437ZM18.975 16.9641L19.3102 17.1703L20.1094 16.3711L21.2695 17.5312L20.4703 18.3305L20.6766 18.6656C20.9086 19.0523 21.0891 19.4906 21.1922 19.9289L21.2953 20.3156H22.4297V21.9656H21.2953L21.1922 22.3523C21.0891 22.7906 20.9086 23.2031 20.6766 23.6156L20.4703 23.9508L21.2695 24.75L20.1094 25.9102L19.3102 25.1109L18.975 25.3172C18.5883 25.5492 18.15 25.7297 17.7117 25.8328L17.325 25.9359V27.0703H15.675V25.9359L15.2883 25.8328C14.85 25.7297 14.4375 25.5492 14.025 25.3172L13.6898 25.1109L12.8906 25.9102L11.7305 24.75L12.5297 23.9508L12.3234 23.6156C12.0914 23.2289 11.9109 22.7906 11.8078 22.3523L11.7047 21.9656H10.5703V20.3156H11.7047L11.8078 19.9289C11.9109 19.4906 12.0914 19.0781 12.3234 18.6656L12.5297 18.3305L11.7305 17.5312L12.8906 16.3711L13.6898 17.1703L14.025 16.9641C14.4117 16.732 14.85 16.5516 15.2883 16.4484L15.675 16.3453V15.2109H17.325V16.3453L17.7117 16.4484C18.15 16.5516 18.5625 16.732 18.975 16.9641Z" fill="black"/>
<path d="M13.3047 21.1407C13.3047 22.8938 14.7484 24.3376 16.5016 24.3376C18.2547 24.3376 19.6984 22.8938 19.6984 21.1407C19.6984 19.3876 18.2547 17.9438 16.5016 17.9438C14.7484 17.9438 13.3047 19.3876 13.3047 21.1407ZM18.6672 21.1407C18.6672 22.3267 17.6875 23.3063 16.5016 23.3063C15.3156 23.3063 14.3359 22.3267 14.3359 21.1407C14.3359 19.9548 15.3156 18.9751 16.5016 18.9751C17.6875 18.9751 18.6672 19.9548 18.6672 21.1407Z" fill="black"/>
</svg>
