<svg width="33" height="33" viewBox="0 0 33 33" fill="none" xmlns="http://www.w3.org/2000/svg">
<path d="M10.8281 32.4844H0.773438V28.3594H10.8281V32.4844ZM1.80469 31.4531H9.79688V29.3906H1.80469V31.4531Z" fill="black"/>
<path d="M21.3984 32.4844H11.3438V28.3594H21.3984V32.4844ZM12.375 31.4531H20.3672V29.3906H12.375V31.4531Z" fill="black"/>
<path d="M31.9688 32.4844H21.9141V28.3594H31.9688V32.4844ZM22.9453 31.4531H30.9375V29.3906H22.9453V31.4531Z" fill="black"/>
<path d="M15.9844 27.8438H5.92969V23.7188H15.9844V27.8438ZM6.96094 26.8125H14.9531V24.75H6.96094V26.8125Z" fill="black"/>
<path d="M26.5547 27.8438H16.5V23.7188H26.5547V27.8438ZM17.5312 26.8125H25.5234V24.75H17.5312V26.8125Z" fill="black"/>
<path d="M31.9688 27.8438H27.0703V23.7188H31.9688V24.75H28.1016V26.8125H31.9688V27.8438Z" fill="black"/>
<path d="M5.41406 27.8438H0.773438V26.8125H4.38281V24.75H0.773438V23.7188H5.41406V27.8438Z" fill="black"/>
<path d="M10.8281 23.2031H0.773438V19.0781H10.8281V23.2031ZM1.80469 22.1719H9.79688V20.1094H1.80469V22.1719Z" fill="black"/>
<path d="M21.3984 23.2031H11.3438V19.0781H21.3984V23.2031ZM12.375 22.1719H20.3672V20.1094H12.375V22.1719Z" fill="black"/>
<path d="M31.9688 23.2031H21.9141V19.0781H31.9688V23.2031ZM22.9453 22.1719H30.9375V20.1094H22.9453V22.1719Z" fill="black"/>
<path d="M15.9844 18.5625H5.92969V14.4375H15.9844V18.5625ZM6.96094 17.5312H14.9531V15.4688H6.96094V17.5312Z" fill="black"/>
<path d="M26.5547 18.5625H16.5V14.4375H26.5547V18.5625ZM17.5312 17.5312H25.5234V15.4688H17.5312V17.5312Z" fill="black"/>
<path d="M31.9688 18.5625H27.0703V14.4375H31.9688V15.4688H28.1016V17.5312H31.9688V18.5625Z" fill="black"/>
<path d="M5.41406 18.5625H0.773438V17.5312H4.38281V15.4688H0.773438V14.4375H5.41406V18.5625Z" fill="black"/>
<path d="M10.8281 13.9219H0.773438V9.79688H10.8281V13.9219ZM1.80469 12.8906H9.79688V10.8281H1.80469V12.8906Z" fill="black"/>
<path d="M21.3984 13.9219H11.3438V9.79688H21.3984V13.9219ZM12.375 12.8906H20.3672V10.8281H12.375V12.8906Z" fill="black"/>
<path d="M5.41406 9.28125H0.773438V8.25H4.38281V6.1875H0.773438V5.15625H5.41406V9.28125Z" fill="black"/>
<path d="M23.1758 7.88887L21.7578 4.02168L31.1937 0.592773L32.6117 4.45996L23.1758 7.88887ZM23.0984 4.61465L23.7945 6.54824L31.2969 3.81543L30.6008 1.88184L23.0984 4.61465Z" fill="black"/>
</svg>
