<svg width="33" height="33" viewBox="0 0 33 33" fill="none" xmlns="http://www.w3.org/2000/svg">
<path d="M30.6281 0H29.1844H28.5656H27.1219H23.693H22.2492H21.0117H17.3766H16.0875H11.2148H11.0086H9.77109H9.12656H7.68281H4.25391H2.81016H0.128906V2.65547V4.125V7.52813V8.97188V12.375V13.8187V17.2219V18.6914V22.0945V23.5383V26.9414V28.3852V31.7883L0 31.9688H0.128906H1.44375H5.31094H6.31641H7.68281H12.5555H13.9992H17.4023H18.8461H19.4391H20.8828H25.7555H27.0961H28.2305H31.9688L32.0977 32.0977V31.9688V30.6539V27.2508V25.7812V22.3781V20.9344V17.5312V16.0617V12.6586V11.2148V7.78594V6.34219V2.93906V1.46953V0H30.6281ZM1.16016 1.03125H1.75313L1.16016 1.62422V1.03125ZM30.1898 1.03125L31.0664 1.90781V5.31094L29.5969 3.84141L27.1734 1.41797L27.5344 1.05703H30.1898V1.03125ZM27.1734 25.7039L28.8492 24.0281L31.0406 26.2195V29.6227L29.5711 28.1531L27.1734 25.7039ZM27.1734 20.8313L28.875 19.1297L31.0664 21.3211V24.75L29.5969 23.2805L27.1734 20.8313ZM25.7039 20.857L19.1555 27.4055L17.4539 25.7039L26.4258 16.7063L28.1273 18.4078L26.0648 20.4703L25.7039 20.857ZM7.73438 15.9586L9.41016 14.2828L18.4336 23.2547L17.9953 23.693L16.732 24.9563L10.1578 18.4078L10.1836 18.382L7.73438 15.9586ZM7.76016 11.0859L9.43594 9.41016L18.4336 18.4078L16.732 20.1094L10.1578 13.5352L10.1836 13.5094L7.76016 11.0859ZM7.73438 6.23906L9.41016 4.56328L18.4336 13.5352L16.732 15.2367L10.1578 8.68828L10.1836 8.6625L7.73438 6.23906ZM19.1555 22.5328L17.4539 20.8313L19.8773 18.4078L26.4258 11.8594L28.1273 13.5609L26.0648 15.6234L19.1555 22.5328ZM26.4516 10.3641L19.1555 17.6602L17.4539 15.9586L26.4258 6.98672L28.1273 8.68828L26.4516 10.3641ZM26.0648 5.87812L19.1555 12.8133L17.4539 11.1117L26.4258 2.11406L28.1273 3.81562L26.0648 5.87812ZM8.71406 3.81562L1.16016 11.3438V7.94062L7.0125 2.08828L8.71406 3.81562ZM8.71406 18.4078L1.16016 25.9359V22.5328L7.0125 16.6805L8.71406 18.4078ZM8.71406 23.2547L1.16016 30.8086V27.4055L7.0125 21.5531L8.71406 23.2547ZM7.73438 20.8313L9.43594 19.1297L18.4336 28.1273L16.732 29.8289L10.1578 23.2547L10.1836 23.2289L7.73438 20.8313ZM27.1734 6.26484L28.8492 4.58906L31.0406 6.78047V10.1836L29.5711 8.71406L27.1734 6.26484ZM26.0648 1.03125L19.1555 7.94062L17.4539 6.23906L22.6617 1.03125H26.0648ZM21.0117 1.03125H21.1922L19.1555 3.06797L17.4539 1.36641L17.7891 1.03125H21.0117ZM15.6492 1.03125L18.4336 3.81562L17.8406 4.40859L16.732 5.51719L12.2461 1.03125H15.6492ZM10.7766 1.03125L18.4336 8.6625L16.732 10.3641L10.1578 3.81562L7.73438 1.39219L8.06953 1.03125H10.7766ZM6.62578 1.03125L1.16016 6.49688V3.09375L3.22266 1.03125H6.62578ZM1.16016 12.8133L7.0125 6.96094L8.71406 8.6625L7.03828 10.3383L1.16016 16.2164V12.8133ZM6.98672 11.8336L8.68828 13.5352L1.16016 21.0633V17.6859L6.98672 11.8336ZM5.31094 30.9375H2.475L6.98672 26.4258L8.68828 28.1273L5.90391 30.9375H5.31094ZM8.09531 30.9375L7.70859 30.5508L9.41016 28.8492L11.4727 30.9117H8.09531V30.9375ZM12.968 30.9375L10.1578 28.1273L7.73438 25.7039L9.41016 24.0281L16.3711 30.9375H12.968ZM17.8406 30.9375L17.4539 30.5508L26.4258 21.5789L28.1273 23.2805L20.4703 30.9375H17.8406ZM21.9398 30.9375L26.4258 26.4516L28.1273 28.1531L25.343 30.9375H21.9398ZM28.2305 30.9375H27.5344L27.1734 30.5766L28.875 28.875L30.9375 30.9375H28.2305ZM31.0664 19.8773L29.5969 18.4078L27.1734 15.9844L28.8492 14.3086L31.0664 16.5V19.8773ZM29.5969 13.5609L27.1992 11.1117L28.875 9.43594L31.0664 11.6273V15.0305L29.5969 13.5609Z" fill="black"/>
</svg>
