<svg width="33" height="33" viewBox="0 0 33 33" fill="none" xmlns="http://www.w3.org/2000/svg">
<path d="M13.1875 10.6826H14.7344V23.0576H13.1875V10.6826Z" fill="black"/>
<path d="M16.2812 10.6826H17.8281V23.0576H16.2812V10.6826Z" fill="black"/>
<path d="M19.375 10.6826H20.9219V23.0576H19.375V10.6826Z" fill="black"/>
<path d="M7 6.04199H27.1094V7.58887H7V6.04199Z" fill="black"/>
<path d="M20.8734 6.81562H19.4297V5.26875C19.4297 4.80468 19.0687 4.44375 18.6047 4.44375H15.5109C15.0469 4.44375 14.6859 4.80468 14.6859 5.26875V6.81562H13.2422V5.26875C13.2422 4.03125 14.2734 3 15.5109 3H18.6047C19.8422 3 20.8734 4.03125 20.8734 5.26875V6.81562Z" fill="black"/>
<path d="M21.6953 27.6985H12.4141C11.1766 27.6985 10.0938 26.6673 9.99063 25.4298L8.54688 6.86728L10.0938 6.76416L11.5375 25.3267C11.5891 25.7907 12.0016 26.1517 12.4141 26.1517H21.6953C22.1594 26.1517 22.5719 25.7392 22.5719 25.3267L24.0156 6.76416L25.5625 6.86728L24.1187 25.4298C24.0156 26.7188 22.9328 27.6985 21.6953 27.6985Z" fill="black"/>
</svg>
