<svg width="26" height="26" viewBox="0 0 26 26" fill="none" xmlns="http://www.w3.org/2000/svg">
<path d="M20.4789 26.0001H5.47889C4.64438 25.9999 3.82093 25.8091 3.07136 25.4424C2.32178 25.0756 1.66587 24.5424 1.15367 23.8836C0.641463 23.2248 0.286489 22.4577 0.115824 21.6408C-0.0548423 20.8239 -0.0366924 19.9789 0.168889 19.1701L3.20889 6.76007C3.26364 6.53819 3.39274 6.34176 3.57468 6.20348C3.75663 6.0652 3.98045 5.99341 4.20889 6.00007H20.9589C21.1795 5.98997 21.3972 6.05317 21.5781 6.17979C21.759 6.30642 21.8929 6.48936 21.9589 6.70007L25.7389 18.8601C25.9973 19.686 26.0568 20.5613 25.9126 21.4146C25.7684 22.2679 25.4244 23.075 24.9089 23.7701C24.4018 24.4681 23.7351 25.0347 22.9645 25.4226C22.1938 25.8105 21.3416 26.0085 20.4789 26.0001ZM4.95889 8.00007L2.06889 19.6501C1.94019 20.1641 1.92988 20.7006 2.03873 21.2191C2.14757 21.7377 2.37274 22.2248 2.69725 22.6437C3.02175 23.0625 3.43713 23.4023 3.91205 23.6372C4.38697 23.8722 4.90904 23.9963 5.43889 24.0001H20.4389C20.9831 24.0009 21.5198 23.8727 22.0048 23.6258C22.4898 23.379 22.9093 23.0206 23.2289 22.5801C23.5577 22.137 23.7771 21.6226 23.8692 21.0786C23.9613 20.5347 23.9235 19.9766 23.7589 19.4501L20.2389 8.00007H4.95889Z" fill="black"/>
<path d="M16.9609 14C16.6957 14 16.4414 13.8946 16.2538 13.7071C16.0663 13.5196 15.9609 13.2652 15.9609 13V5C15.9609 4.20435 15.6449 3.44129 15.0823 2.87868C14.5196 2.31607 13.7566 2 12.9609 2C12.1653 2 11.4022 2.31607 10.8396 2.87868C10.277 3.44129 9.96094 4.20435 9.96094 5V13C9.96094 13.2652 9.85558 13.5196 9.66804 13.7071C9.48051 13.8946 9.22615 14 8.96094 14C8.69572 14 8.44137 13.8946 8.25383 13.7071C8.06629 13.5196 7.96094 13.2652 7.96094 13V5C7.96094 3.67392 8.48772 2.40215 9.4254 1.46447C10.3631 0.526784 11.6349 0 12.9609 0C14.287 0 15.5588 0.526784 16.4965 1.46447C17.4342 2.40215 17.9609 3.67392 17.9609 5V13C17.9609 13.2652 17.8556 13.5196 17.668 13.7071C17.4805 13.8946 17.2262 14 16.9609 14Z" fill="black"/>
</svg>
