<svg width="33" height="33" viewBox="0 0 33 33" fill="none" xmlns="http://www.w3.org/2000/svg">
<g clip-path="url(#clip0_20193_132)">
<path d="M16.5 33C25.6127 33 33 25.6127 33 16.5C33 7.3873 25.6127 0 16.5 0C7.3873 0 0 7.3873 0 16.5C0 25.6127 7.3873 33 16.5 33Z" fill="#52BC41"/>
<path d="M13.9953 25.0595L6.38984 17.454C6.28672 17.3509 6.28672 17.1962 6.38984 17.0931L8.58125 14.9017C8.68438 14.7985 8.83906 14.7985 8.94219 14.9017L14.1758 20.1353L24.0242 10.2868C24.1273 10.1837 24.282 10.1837 24.3852 10.2868L26.5766 12.4782C26.6797 12.5813 26.6797 12.736 26.5766 12.8392L14.3562 25.0595C14.2531 25.1626 14.0984 25.1626 13.9953 25.0595Z" fill="white"/>
</g>
<defs>
<clipPath id="clip0_20193_132">
<rect width="33" height="33" fill="white"/>
</clipPath>
</defs>
</svg>
