<svg width="151" height="26" viewBox="0 0 151 26" fill="none" xmlns="http://www.w3.org/2000/svg">
<path d="M5.524 8.152C6.172 7.096 7.012 6.268 8.044 5.668C9.1 5.068 10.3 4.768 11.644 4.768V10.06H10.312C8.728 10.06 7.528 10.432 6.712 11.176C5.92 11.92 5.524 13.216 5.524 15.064V25H0.484V5.056H5.524V8.152ZM33.5787 14.596C33.5787 15.316 33.5307 15.964 33.4347 16.54H18.8547C18.9747 17.98 19.4787 19.108 20.3667 19.924C21.2547 20.74 22.3467 21.148 23.6427 21.148C25.5147 21.148 26.8467 20.344 27.6387 18.736H33.0747C32.4987 20.656 31.3947 22.24 29.7627 23.488C28.1307 24.712 26.1267 25.324 23.7507 25.324C21.8307 25.324 20.1027 24.904 18.5667 24.064C17.0547 23.2 15.8667 21.988 15.0027 20.428C14.1627 18.868 13.7427 17.068 13.7427 15.028C13.7427 12.964 14.1627 11.152 15.0027 9.592C15.8427 8.032 17.0187 6.832 18.5307 5.992C20.0427 5.152 21.7827 4.732 23.7507 4.732C25.6467 4.732 27.3387 5.14 28.8267 5.956C30.3387 6.772 31.5027 7.936 32.3187 9.448C33.1587 10.936 33.5787 12.652 33.5787 14.596ZM28.3587 13.156C28.3347 11.86 27.8667 10.828 26.9547 10.06C26.0427 9.268 24.9267 8.872 23.6067 8.872C22.3587 8.872 21.3027 9.256 20.4387 10.024C19.5987 10.768 19.0827 11.812 18.8907 13.156H28.3587ZM39.4894 25.252C38.5774 25.252 37.8214 24.976 37.2214 24.424C36.6454 23.848 36.3574 23.14 36.3574 22.3C36.3574 21.46 36.6454 20.764 37.2214 20.212C37.8214 19.636 38.5774 19.348 39.4894 19.348C40.3774 19.348 41.1094 19.636 41.6854 20.212C42.2614 20.764 42.5494 21.46 42.5494 22.3C42.5494 23.14 42.2614 23.848 41.6854 24.424C41.1094 24.976 40.3774 25.252 39.4894 25.252ZM71.377 4.768C73.825 4.768 75.793 5.524 77.281 7.036C78.793 8.524 79.549 10.612 79.549 13.3V25H74.509V13.984C74.509 12.424 74.113 11.236 73.321 10.42C72.529 9.58 71.449 9.16 70.081 9.16C68.713 9.16 67.621 9.58 66.805 10.42C66.013 11.236 65.617 12.424 65.617 13.984V25H60.577V13.984C60.577 12.424 60.181 11.236 59.389 10.42C58.597 9.58 57.517 9.16 56.149 9.16C54.757 9.16 53.653 9.58 52.837 10.42C52.045 11.236 51.649 12.424 51.649 13.984V25H46.609V5.056H51.649V7.468C52.297 6.628 53.125 5.968 54.133 5.488C55.165 5.008 56.293 4.768 57.517 4.768C59.077 4.768 60.469 5.104 61.693 5.776C62.917 6.424 63.865 7.36 64.537 8.584C65.185 7.432 66.121 6.508 67.345 5.812C68.593 5.116 69.937 4.768 71.377 4.768ZM93.1877 25.324C91.2677 25.324 89.5397 24.904 88.0037 24.064C86.4677 23.2 85.2557 21.988 84.3677 20.428C83.5037 18.868 83.0717 17.068 83.0717 15.028C83.0717 12.988 83.5157 11.188 84.4037 9.628C85.3157 8.068 86.5517 6.868 88.1117 6.028C89.6717 5.164 91.4117 4.732 93.3317 4.732C95.2517 4.732 96.9917 5.164 98.5517 6.028C100.112 6.868 101.336 8.068 102.224 9.628C103.136 11.188 103.592 12.988 103.592 15.028C103.592 17.068 103.124 18.868 102.188 20.428C101.276 21.988 100.028 23.2 98.4437 24.064C96.8837 24.904 95.1317 25.324 93.1877 25.324ZM93.1877 20.932C94.0997 20.932 94.9517 20.716 95.7437 20.284C96.5597 19.828 97.2077 19.156 97.6877 18.268C98.1677 17.38 98.4077 16.3 98.4077 15.028C98.4077 13.132 97.9037 11.68 96.8957 10.672C95.9117 9.64 94.6997 9.124 93.2597 9.124C91.8197 9.124 90.6077 9.64 89.6237 10.672C88.6637 11.68 88.1837 13.132 88.1837 15.028C88.1837 16.924 88.6517 18.388 89.5877 19.42C90.5477 20.428 91.7477 20.932 93.1877 20.932ZM109.521 25.252C108.609 25.252 107.853 24.976 107.253 24.424C106.677 23.848 106.389 23.14 106.389 22.3C106.389 21.46 106.677 20.764 107.253 20.212C107.853 19.636 108.609 19.348 109.521 19.348C110.409 19.348 111.141 19.636 111.717 20.212C112.293 20.764 112.581 21.46 112.581 22.3C112.581 23.14 112.293 23.848 111.717 24.424C111.141 24.976 110.409 25.252 109.521 25.252ZM127.692 4.768C130.068 4.768 131.988 5.524 133.452 7.036C134.916 8.524 135.648 10.612 135.648 13.3V25H130.608V13.984C130.608 12.4 130.212 11.188 129.42 10.348C128.628 9.484 127.548 9.052 126.18 9.052C124.788 9.052 123.684 9.484 122.868 10.348C122.076 11.188 121.68 12.4 121.68 13.984V25H116.64V5.056H121.68V7.54C122.352 6.676 123.204 6.004 124.236 5.524C125.292 5.02 126.444 4.768 127.692 4.768ZM146.309 9.196V18.844C146.309 19.516 146.465 20.008 146.777 20.32C147.113 20.608 147.665 20.752 148.433 20.752H150.773V25H147.605C143.357 25 141.233 22.936 141.233 18.808V9.196H138.857V5.056H141.233V0.123998H146.309V5.056H150.773V9.196H146.309Z" fill="#E49F00"/>
</svg>
