<svg width="90" height="90" viewBox="0 0 90 90" fill="none" xmlns="http://www.w3.org/2000/svg">
<path d="M0 75.4839H34.4758V87.0968H15.9677V90H74.0323V87.0968H55.5242V75.4839H90V0H0V75.4839ZM52.621 87.0968H37.379V75.4839H52.621V87.0968ZM2.90323 72.5807V64.5968H87.0968V72.5807H2.90323ZM87.0968 2.90323V61.6936H2.90323V2.90323H87.0968Z" fill="black"/>
<path d="M68.222 22.4999H49.714V21.7741H46.8107V25.4031H65.3188V50.8063H49.714V31.5725H46.8107V50.8063H26.2704V25.4031H38.8269V21.1934H35.9236V22.4999H26.2704V14.516H46.8107V15.2418H49.714V11.6128H23.3672V53.7096H68.222V22.4999Z" fill="black"/>
</svg>
