<svg width="90" height="90" viewBox="0 0 90 90" fill="none" xmlns="http://www.w3.org/2000/svg">
<path d="M57.6588 41.4141C54.9166 38.9531 53.2995 35.4375 53.2995 31.8516V26.0156C53.2995 21.8672 50.3463 18.4219 46.4088 17.7188V1.40625H43.5963V17.7188C39.5885 18.2812 36.4245 21.7969 36.4245 26.0156V32.0625C36.4245 35.6484 34.9479 39.0234 32.3463 41.3438C27.9166 45.2812 25.5963 50.9766 26.0885 56.9531C26.7916 66.3047 34.3854 73.8281 43.8073 74.4609C44.2291 74.4609 44.651 74.5312 45.0729 74.5312C50.1354 74.5312 54.9166 72.5625 58.5026 68.9766C62.0182 65.3906 63.987 60.6094 63.987 55.5469C63.987 50.1328 61.6666 45 57.6588 41.4141ZM39.237 26.0156C39.237 22.9219 41.7682 20.3906 44.862 20.3906C47.9557 20.3906 50.487 22.9219 50.487 26.0156V31.6406H39.237V26.0156ZM56.4635 67.0078C53.3698 70.0312 49.2916 71.7188 45.0026 71.7188C44.651 71.7188 44.2995 71.7188 43.9479 71.7188C35.9323 71.2266 29.4635 64.8281 28.901 56.8125C28.5495 51.75 30.4479 46.8984 34.2448 43.5234C36.8463 41.2031 38.5338 37.9688 39.0963 34.5234H43.5963V50.6953H38.8151V53.5078H51.1198V50.6953H46.4088V34.4531H50.7682C51.401 37.8984 53.1588 41.0625 55.8307 43.5234C59.2057 46.5469 61.1745 50.9766 61.1745 55.5469C61.1745 59.8359 59.487 63.9141 56.4635 67.0078Z" fill="black"/>
<g opacity="0.3">
<path d="M20.4609 55.4766H13.4297V58.2891H20.4609V55.4766Z" fill="black"/>
<path d="M28.6215 75.2978L26.6328 73.3091L21.661 78.2809L23.6497 80.2696L28.6215 75.2978Z" fill="black"/>
<path d="M46.4062 81.4922H43.5938V88.5234H46.4062V81.4922Z" fill="black"/>
<path d="M68.2999 78.2542L63.3281 73.2817L61.3391 75.2705L66.3109 80.243L68.2999 78.2542Z" fill="black"/>
<path d="M76.5703 55.4766H69.5391V58.2891H76.5703V55.4766Z" fill="black"/>
<path d="M68.309 35.5439L66.3203 33.5552L61.3485 38.527L63.3372 40.5157L68.309 35.5439Z" fill="black"/>
<path d="M28.6437 38.5616L23.6719 33.5898L21.6832 35.5786L26.655 40.5504L28.6437 38.5616Z" fill="black"/>
</g>
</svg>
