<svg width="90" height="90" viewBox="0 0 90 90" fill="none" xmlns="http://www.w3.org/2000/svg">
<path d="M11.25 88.5938H77.3438V16.3125L62.4375 1.40625H11.25V88.5938ZM63.2812 6.1875L72.5625 15.4688H63.2812V6.1875ZM14.0625 4.21875H60.4688V18.2812H74.5312V85.7812H14.0625V4.21875Z" fill="black"/>
<path d="M55.5469 15.4688H34.4531V18.2812H55.5469V15.4688Z" fill="black"/>
<path d="M66.0938 26.7188H23.9062V29.5312H66.0938V26.7188Z" fill="black"/>
<path d="M66.0938 33.75H23.9062V36.5625H66.0938V33.75Z" fill="black"/>
<path d="M66.0938 40.7812H23.9062V43.5938H66.0938V40.7812Z" fill="black"/>
<path d="M66.0938 47.8125H23.9062V50.625H66.0938V47.8125Z" fill="black"/>
<path d="M44.9297 70.3828L40.3594 65.8125L38.3906 67.7813L45.0703 74.4609L55.1953 62.7891L53.0859 60.9609L44.9297 70.3828Z" fill="black"/>
</svg>
