<svg width="90" height="90" viewBox="0 0 90 90" fill="none" xmlns="http://www.w3.org/2000/svg">
<path d="M77.0625 27.3516L83.0391 21.375L68.625 6.96094L62.6484 12.9375C60.2578 11.6016 57.7969 10.6172 55.1953 9.84375V1.40625H34.8047V9.84375C32.2031 10.6172 29.7422 11.6016 27.3516 12.9375L21.375 6.96094L6.96094 21.375L12.9375 27.3516C11.6016 29.7422 10.6172 32.2031 9.84375 34.8047H1.40625V55.1953H9.84375C10.6172 57.7969 11.6016 60.2578 12.9375 62.6484L6.96094 68.625L21.375 83.0391L27.3516 77.0625C29.7422 78.3984 32.2031 79.3828 34.8047 80.1562V88.5938H55.1953V80.1562C57.7969 79.3828 60.2578 78.3984 62.6484 77.0625L68.625 83.0391L83.0391 68.625L77.0625 62.6484C78.3984 60.2578 79.3828 57.7969 80.1562 55.1953H88.5938V34.8047H80.1562C79.3828 32.2031 78.3281 29.7422 77.0625 27.3516ZM85.7812 52.3828H77.9766L77.6953 53.4375C76.9219 56.4609 75.7266 59.4141 74.1094 62.1562L73.5469 63.0703L79.1016 68.625L68.6953 79.0312L63.1406 73.4766L62.2266 74.0391C59.4844 75.6562 56.5312 76.8516 53.5078 77.625L52.4531 77.9062V85.7812H37.6875V77.9766L36.6328 77.6953C33.6094 76.9219 30.6562 75.7266 27.9141 74.1094L27 73.5469L21.4453 79.1016L10.9688 68.625L16.5234 63.0703L15.9609 62.1562C14.3438 59.4141 13.1484 56.4609 12.375 53.4375L12.0938 52.3828H4.21875V37.6172H12.0234L12.3047 36.5625C13.0781 33.5391 14.2734 30.5859 15.8906 27.8437L16.4531 26.9297L10.8984 21.375L21.3047 10.9688L26.8594 16.5234L27.7734 15.9609C30.5156 14.3438 33.4688 13.1484 36.4922 12.375L37.5469 12.0938V4.21875H52.3125V12.0234L53.3672 12.3047C56.3906 13.0781 59.3438 14.2734 62.0859 15.8906L63 16.4531L68.5547 10.8984L78.9609 21.3047L73.4062 26.8594L73.9688 27.7734C75.5859 30.5156 76.7812 33.4688 77.5547 36.4922L77.8359 37.5469H85.7812V52.3828Z" fill="black"/>
<path d="M45 22.5C32.625 22.5 22.5 32.625 22.5 45C22.5 57.375 32.625 67.5 45 67.5C57.375 67.5 67.5 57.375 67.5 45C67.5 32.625 57.375 22.5 45 22.5ZM45 64.6875C34.1719 64.6875 25.3125 55.8281 25.3125 45C25.3125 34.1719 34.1719 25.3125 45 25.3125C55.8281 25.3125 64.6875 34.1719 64.6875 45C64.6875 55.8281 55.8281 64.6875 45 64.6875Z" fill="black"/>
<path d="M44.9297 43.2422C43.7344 42.6797 42.75 42.1875 42.75 40.7109C42.75 39.5156 43.8047 38.4609 45 38.4609C45.7031 38.4609 46.5469 38.8125 46.9688 39.6563L49.5703 38.3906C49.0078 37.0547 47.7422 36.1406 46.4062 35.7891V34.5938H43.5937V35.7891C41.4141 36.4219 39.8672 38.3203 39.8672 40.8516C39.8672 43.875 41.8359 45 44.4375 46.125C45.7734 46.6875 47.3203 47.3906 47.3203 49.2187C47.3203 50.4844 46.1953 51.6797 44.9297 51.6797C43.6641 51.6797 42.8906 51.0469 42.3984 50.1328C41.5547 50.4141 40.7109 50.6953 39.9375 50.9062C40.3594 52.5234 41.7656 53.9297 43.6641 54.3516V55.7578H46.4766V54.3516C48.5859 53.7188 50.2031 51.6797 50.2031 49.2891C50.1328 46.0547 48.5859 44.8594 44.9297 43.2422Z" fill="black"/>
</svg>
