<svg width="90" height="90" viewBox="0 0 90 90" fill="none" xmlns="http://www.w3.org/2000/svg">
<path d="M45 1.40625H34.8047V9.84375C32.2031 10.6172 29.7422 11.6016 27.3516 12.9375L21.375 6.96094L6.96094 21.375L12.9375 27.3516C11.6016 29.7422 10.6172 32.2031 9.84375 34.8047H1.40625V55.1953H9.84375C10.6172 57.7969 11.6016 60.2578 12.9375 62.6484L6.96094 68.625L21.375 83.0391L27.3516 77.0625C29.7422 78.3984 32.2031 79.3828 34.8047 80.1562V88.5938H45C69.0469 88.5938 88.5938 69.0469 88.5938 45C88.5938 20.9531 69.0469 1.40625 45 1.40625ZM45 85.7812H37.6172V77.9766L36.5625 77.6953C33.5391 76.9219 30.5859 75.7266 27.8437 74.1094L26.9297 73.5469L21.375 79.1016L10.9688 68.625L16.5234 63.0703L15.9609 62.1562C14.3438 59.4141 13.1484 56.4609 12.375 53.4375L12.0938 52.3828H4.21875V37.6172H12.0234L12.3047 36.5625C13.0781 33.5391 14.2734 30.5859 15.8906 27.8437L16.4531 26.9297L10.8984 21.375L21.3047 10.9688L26.8594 16.5234L27.7734 15.9609C30.5156 14.3438 33.4688 13.1484 36.4922 12.375L37.5469 12.0938V4.21875H45C67.5 4.21875 85.7812 22.5 85.7812 45C85.7812 67.5 67.5 85.7812 45 85.7812Z" fill="black"/>
<path d="M64.4062 23.625L45 43.0313L40.9922 39.0234L39.0234 40.9922L43.0313 45L39.0234 49.0078L40.9922 50.9766L45 46.9688L56.9531 58.9219L58.9219 56.9531L46.9688 45L66.375 25.5938L64.4062 23.625Z" fill="black"/>
<path d="M45 64.6875C34.1719 64.6875 25.3125 55.8281 25.3125 45C25.3125 34.1719 34.1719 25.3125 45 25.3125V22.5C32.625 22.5 22.5 32.625 22.5 45C22.5 57.375 32.625 67.5 45 67.5V64.6875Z" fill="black"/>
<path d="M46.4062 15.6797H43.5938V18H46.4062V15.6797Z" fill="black"/>
<path d="M74.25 43.5938H71.9297V46.4062H74.25V43.5938Z" fill="black"/>
<path d="M46.4062 71.9297H43.5938V74.25H46.4062V71.9297Z" fill="black"/>
</svg>
