<svg width="21" height="21" viewBox="0 0 21 21" fill="none" xmlns="http://www.w3.org/2000/svg">
<g clip-path="url(#clip0_20171_75)">
<path d="M20.5 10.1667C20.5 12.8189 19.4464 15.3625 17.5711 17.2378C15.6957 19.1132 13.1522 20.1667 10.5 20.1667C7.84784 20.1667 5.3043 19.1132 3.42893 17.2378C1.55357 15.3625 0.5 12.8189 0.5 10.1667C0.5 7.51458 1.55357 4.97104 3.42893 3.09568C5.3043 1.22032 7.84784 0.166748 10.5 0.166748C13.1522 0.166748 15.6957 1.22032 17.5711 3.09568C19.4464 4.97104 20.5 7.51458 20.5 10.1667ZM15.5375 6.37925C15.4482 6.29027 15.3419 6.22021 15.2249 6.17327C15.1079 6.12632 14.9827 6.10345 14.8567 6.10601C14.7306 6.10858 14.6064 6.13654 14.4914 6.18821C14.3765 6.23988 14.2731 6.31421 14.1875 6.40675L9.84625 11.938L7.23 9.3205C7.05228 9.1549 6.81722 9.06474 6.57435 9.06903C6.33147 9.07331 6.09974 9.1717 5.92797 9.34347C5.75621 9.51524 5.65782 9.74697 5.65353 9.98985C5.64925 10.2327 5.7394 10.4678 5.905 10.6455L9.2125 13.9542C9.3016 14.0432 9.40771 14.1133 9.52448 14.1603C9.64125 14.2074 9.76631 14.2304 9.89218 14.2281C10.0181 14.2257 10.1422 14.1981 10.2571 14.1467C10.3721 14.0954 10.4755 14.0214 10.5612 13.9292L15.5513 7.69175C15.7214 7.51487 15.8153 7.27834 15.813 7.03295C15.8107 6.78755 15.7122 6.55285 15.5387 6.37925H15.5375Z" fill="white"/>
</g>
<defs>
<clipPath id="clip0_20171_75">
<rect width="20" height="20" fill="white" transform="translate(0.5 0.166748)"/>
</clipPath>
</defs>
</svg>
